<svg width="135" height="40" fill="none" xmlns="http://www.w3.org/2000/svg"><path d="M135 35.99c0 2.216-1.738 4.01-3.888 4.01H3.892C1.745 40 0 38.206 0 35.99V4.015C0 1.8 1.744 0 3.893 0H131.11c2.151 0 3.888 1.8 3.888 4.015L135 35.99Z" fill="#212529"/><path d="M29.646 19.78c-.03-3.374 2.676-5.016 2.8-5.092-1.532-2.306-3.907-2.621-4.742-2.647-1.994-.216-3.929 1.233-4.945 1.233-1.036 0-2.6-1.212-4.287-1.176-2.17.034-4.2 1.332-5.313 3.346-2.298 4.107-.584 10.142 1.617 13.462 1.101 1.626 2.388 3.441 4.072 3.377 1.648-.07 2.264-1.084 4.252-1.084 1.97 0 2.548 1.084 4.266 1.043 1.768-.029 2.881-1.633 3.944-3.273 1.272-1.864 1.784-3.699 1.804-3.793-.042-.015-3.434-1.352-3.468-5.396Zm-3.245-9.922c.887-1.145 1.493-2.701 1.325-4.281-1.283.058-2.887.916-3.81 2.035-.818.986-1.548 2.603-1.36 4.123 1.441.11 2.92-.75 3.845-1.877Zm27.09 22.192h-2.303l-1.26-4.092h-4.385L44.34 32.05H42.1l4.344-13.932h2.683l4.365 13.932Zm-3.944-5.81-1.14-3.637c-.121-.372-.347-1.247-.681-2.625h-.04c-.133.593-.347 1.468-.642 2.625l-1.12 3.638h3.623Zm15.115.663c0 1.709-.447 3.06-1.342 4.05-.8.883-1.795 1.324-2.983 1.324-1.281 0-2.202-.475-2.763-1.426h-.04v5.292h-2.162V25.311c0-1.074-.027-2.177-.08-3.307h1.901l.12 1.592h.041c.721-1.2 1.815-1.799 3.284-1.799 1.147 0 2.105.468 2.872 1.405.769.938 1.152 2.172 1.152 3.701Zm-2.202.082c0-.978-.213-1.784-.641-2.418-.468-.662-1.095-.993-1.882-.993-.533 0-1.018.184-1.451.548-.434.366-.718.845-.85 1.437a2.95 2.95 0 0 0-.101.68v1.676c0 .73.217 1.347.65 1.85.435.504.999.755 1.692.755.814 0 1.448-.324 1.901-.971.455-.648.682-1.502.682-2.564Zm13.393-.082c0 1.709-.447 3.06-1.343 4.05-.8.883-1.794 1.324-2.982 1.324-1.281 0-2.202-.475-2.762-1.426h-.04v5.292h-2.162V25.311c0-1.074-.027-2.177-.08-3.307h1.901l.12 1.592h.041c.72-1.2 1.814-1.799 3.284-1.799 1.146 0 2.105.468 2.873 1.405.766.938 1.15 2.172 1.15 3.701Zm-2.202.082c0-.978-.214-1.784-.642-2.418-.468-.662-1.093-.993-1.881-.993-.534 0-1.018.184-1.452.548-.434.366-.717.845-.85 1.437a3.07 3.07 0 0 0-.1.68v1.676c0 .73.217 1.347.649 1.85.434.503.998.755 1.693.755.814 0 1.448-.324 1.901-.971.455-.648.682-1.502.682-2.564Zm14.714 1.158c0 1.185-.398 2.15-1.198 2.893-.88.814-2.103 1.22-3.676 1.22-1.452 0-2.616-.289-3.497-.868l.5-1.86c.95.592 1.991.89 3.126.89.814 0 1.448-.19 1.903-.57.453-.379.68-.888.68-1.522 0-.565-.187-1.042-.561-1.428-.372-.386-.994-.745-1.862-1.077-2.362-.91-3.543-2.243-3.543-3.995 0-1.146.414-2.085 1.242-2.815.826-.732 1.927-1.098 3.304-1.098 1.228 0 2.248.221 3.062.662l-.54 1.82c-.76-.427-1.62-.641-2.583-.641-.76 0-1.355.194-1.78.579-.36.344-.54.764-.54 1.261 0 .551.205 1.006.619 1.364.36.331 1.014.69 1.963 1.076 1.16.482 2.013 1.047 2.562 1.694.546.644.82 1.452.82 2.415Zm7.148-4.464H93.13v4.877c0 1.24.42 1.86 1.261 1.86.386 0 .707-.034.96-.103l.06 1.695c-.426.164-.986.247-1.681.247-.854 0-1.52-.269-2.003-.806-.48-.538-.72-1.44-.72-2.708v-5.064h-1.42v-1.675h1.42v-1.84l2.123-.661V22h2.383v1.678Zm10.751 3.265c0 1.544-.428 2.812-1.282 3.803-.895 1.021-2.084 1.53-3.565 1.53-1.428 0-2.564-.489-3.412-1.467-.848-.977-1.272-2.212-1.272-3.7 0-1.556.436-2.831 1.311-3.823.874-.992 2.052-1.488 3.533-1.488 1.428 0 2.577.489 3.443 1.467.83.95 1.244 2.176 1.244 3.678Zm-2.243.072c0-.926-.192-1.72-.58-2.383-.454-.802-1.101-1.202-1.941-1.202-.869 0-1.529.4-1.982 1.201-.389.664-.58 1.471-.58 2.426 0 .927.191 1.721.58 2.383.467.802 1.12 1.202 1.963 1.202.825 0 1.473-.409 1.94-1.223.399-.675.6-1.478.6-2.404Zm9.269-3.049a3.64 3.64 0 0 0-.681-.062c-.761 0-1.349.296-1.762.89-.36.523-.541 1.185-.541 1.984v5.27h-2.161l.021-6.881c0-1.158-.028-2.213-.081-3.163h1.883l.079 1.922h.059c.229-.66.589-1.192 1.081-1.591.482-.36 1.002-.538 1.563-.538.2 0 .38.014.54.04v2.129Zm9.668 2.585c0 .4-.025.736-.079 1.012h-6.485c.025.992.339 1.751.941 2.275.546.468 1.253.702 2.121.702.96 0 1.836-.158 2.624-.475l.339 1.55c-.921.414-2.008.62-3.262.62-1.509 0-2.693-.458-3.555-1.374-.86-.916-1.291-2.147-1.291-3.69 0-1.515.401-2.776 1.203-3.782.839-1.074 1.974-1.611 3.402-1.611 1.402 0 2.464.537 3.185 1.61.57.854.857 1.91.857 3.163Zm-2.061-.58c.014-.661-.127-1.233-.42-1.715-.374-.621-.949-.931-1.723-.931-.706 0-1.281.302-1.72.91-.36.482-.574 1.061-.64 1.735h4.503v.002ZM48.832 9.547c0 1.232-.358 2.16-1.073 2.782-.662.575-1.603.863-2.822.863-.604 0-1.12-.027-1.554-.082V6.378a11.118 11.118 0 0 1 1.83-.143c1.161 0 2.036.261 2.627.782.66.59.992 1.433.992 2.53Zm-1.12.03c0-.799-.205-1.411-.615-1.838-.41-.426-1.008-.64-1.796-.64-.334 0-.619.023-.855.071v5.119c.13.02.37.03.718.03.813 0 1.44-.234 1.883-.7.442-.467.665-1.148.665-2.042Zm7.061 1.046c0 .759-.21 1.38-.63 1.869-.44.501-1.023.751-1.75.751-.703 0-1.261-.24-1.678-.721-.416-.48-.623-1.087-.623-1.817 0-.765.213-1.392.643-1.879.43-.486 1.008-.73 1.736-.73.702 0 1.266.24 1.693.72.405.467.609 1.07.609 1.807Zm-1.102.036c0-.456-.096-.846-.285-1.172-.223-.394-.54-.59-.953-.59-.427 0-.752.196-.975.59-.19.326-.285.722-.285 1.191 0 .456.096.846.285 1.172.23.393.55.59.965.59.405 0 .724-.2.953-.6.196-.332.295-.726.295-1.181Zm9.068-2.463-1.496 4.935h-.974l-.619-2.143a16.471 16.471 0 0 1-.384-1.594h-.02c-.092.542-.22 1.073-.384 1.594l-.658 2.143h-.985l-1.406-4.935h1.092l.54 2.346c.131.555.239 1.084.325 1.584h.02c.078-.412.21-.938.394-1.573l.678-2.356h.866l.65 2.306c.157.562.285 1.103.383 1.624h.03c.072-.507.18-1.049.324-1.625l.58-2.305h1.044Zm5.508 4.935h-1.062v-2.826c0-.871-.32-1.307-.963-1.307-.316 0-.57.12-.768.36a1.3 1.3 0 0 0-.295.845v2.927h-1.063V9.606c0-.433-.013-.903-.038-1.412h.933l.05.772h.03c.123-.24.308-.438.55-.596.288-.184.61-.277.964-.277.446 0 .817.148 1.112.447.367.365.55.91.55 1.635v2.956Zm2.931 0h-1.062v-7.2h1.062v7.2Zm6.256-2.508c0 .759-.21 1.38-.63 1.869-.44.501-1.024.751-1.751.751-.703 0-1.261-.24-1.677-.721-.416-.48-.624-1.087-.624-1.817 0-.765.214-1.392.644-1.879.43-.486 1.008-.73 1.735-.73.703 0 1.266.24 1.693.72.406.467.61 1.07.61 1.807Zm-1.103.036c0-.456-.096-.846-.285-1.172-.222-.394-.54-.59-.952-.59-.428 0-.753.196-.975.59-.19.326-.285.722-.285 1.191 0 .456.096.846.285 1.172.23.393.55.59.965.59.405 0 .722-.2.952-.6.197-.332.295-.726.295-1.181Zm6.245 2.472h-.954l-.079-.568h-.03c-.326.453-.791.68-1.395.68-.452 0-.817-.15-1.091-.447-.25-.27-.374-.606-.374-1.005 0-.603.243-1.062.733-1.38.488-.319 1.176-.475 2.06-.468v-.092c0-.65-.33-.974-.992-.974-.471 0-.887.122-1.246.365l-.216-.72c.444-.284.993-.426 1.64-.426 1.249 0 1.875.68 1.875 2.041v1.818c0 .493.024.885.07 1.176Zm-1.103-1.696v-.76c-1.172-.022-1.758.31-1.758.994 0 .257.067.45.204.579a.73.73 0 0 0 .519.192c.233 0 .451-.076.65-.228a.938.938 0 0 0 .385-.777Zm7.142 1.696h-.943l-.05-.792h-.03c-.3.603-.814.904-1.535.904-.576 0-1.055-.233-1.435-.7-.38-.467-.57-1.073-.57-1.817 0-.8.206-1.446.62-1.94.4-.461.89-.691 1.475-.691.641 0 1.09.223 1.346.67h.02V5.932h1.064v5.87c0 .48.012.923.038 1.33Zm-1.102-2.08v-.824c0-.142-.01-.257-.029-.345a1.258 1.258 0 0 0-.384-.665 1.025 1.025 0 0 0-.711-.27 1.08 1.08 0 0 0-.935.489c-.226.325-.34.74-.34 1.249 0 .487.108.883.326 1.188.23.325.54.487.929.487.349 0 .627-.135.84-.406a1.38 1.38 0 0 0 .304-.904Zm10.19-.428c0 .759-.21 1.38-.63 1.869-.44.501-1.022.751-1.751.751-.7 0-1.26-.24-1.677-.721-.416-.48-.624-1.087-.624-1.817 0-.765.214-1.392.644-1.879.43-.486 1.008-.73 1.737-.73.7 0 1.266.24 1.691.72.406.467.61 1.07.61 1.807Zm-1.101.036c0-.456-.096-.846-.285-1.172-.224-.394-.54-.59-.954-.59-.426 0-.75.196-.975.59-.19.326-.285.722-.285 1.191 0 .456.096.846.285 1.172.23.393.55.59.964.59.406 0 .725-.2.954-.6.196-.332.296-.726.296-1.181Zm6.814 2.472h-1.061v-2.826c0-.871-.321-1.307-.965-1.307a.943.943 0 0 0-.766.36 1.29 1.29 0 0 0-.295.845v2.927h-1.064V9.606c0-.433-.012-.903-.037-1.412h.932l.05.772h.03c.124-.24.309-.438.55-.596a1.76 1.76 0 0 1 .964-.277c.446 0 .817.148 1.112.447.368.365.55.91.55 1.635v2.956Zm7.152-4.113h-1.17v2.397c0 .61.207.914.619.914.191 0 .349-.016.474-.05l.027.831c-.21.082-.486.123-.825.123-.42 0-.747-.132-.983-.396-.237-.264-.355-.708-.355-1.33V9.018h-.698v-.822h.698v-.904l1.042-.325v1.228h1.17v.823h.001Zm5.625 4.113h-1.064v-2.805c0-.885-.32-1.328-.962-1.328-.493 0-.829.257-1.014.77a1.44 1.44 0 0 0-.049.394v2.968h-1.062V5.932h1.062v2.974h.02c.334-.541.814-.811 1.436-.811.44 0 .804.148 1.093.447.36.371.54.924.54 1.655v2.934Zm5.803-2.701c0 .197-.014.363-.04.498h-3.186c.014.487.166.86.461 1.117.27.23.617.345 1.043.345a3.42 3.42 0 0 0 1.289-.233l.166.762c-.453.203-.986.304-1.604.304-.74 0-1.323-.225-1.745-.675-.424-.45-.633-1.054-.633-1.812 0-.744.195-1.364.59-1.858.411-.528.968-.792 1.671-.792.687 0 1.209.264 1.562.792.285.419.426.937.426 1.552Zm-1.014-.283a1.515 1.515 0 0 0-.206-.843c-.184-.305-.465-.458-.845-.458-.347 0-.63.149-.846.447a1.692 1.692 0 0 0-.315.854h2.212Z" fill="#fff"/></svg>