<svg width="135" height="40" fill="none" xmlns="http://www.w3.org/2000/svg"><path d="M135 35.99c0 2.216-1.738 4.01-3.888 4.01H3.892C1.745 40 0 38.206 0 35.99V4.015C0 1.8 1.744 0 3.893 0H131.11c2.151 0 3.888 1.8 3.888 4.015L135 35.99Z" fill="#212529"/><path d="M41.41 25c-.634 0-.951-.317-.951-.952v-7.966c0-.635.317-.952.952-.952h2.716c1.652 0 2.926.425 3.822 1.274.905.85 1.358 2.067 1.358 3.654 0 1.577-.453 2.795-1.358 3.654-.896.859-2.17 1.288-3.822 1.288H41.41Zm.84-1.484h1.765c2.277 0 3.416-1.153 3.416-3.458 0-2.296-1.139-3.444-3.416-3.444H42.25v6.902Zm11.827 1.624c-.71 0-1.325-.145-1.848-.434-.523-.29-.929-.7-1.218-1.232-.29-.541-.434-1.176-.434-1.904s.145-1.358.434-1.89c.29-.532.695-.943 1.218-1.232.523-.29 1.139-.434 1.848-.434.71 0 1.325.145 1.848.434.523.29.929.7 1.218 1.232.29.532.434 1.162.434 1.89s-.145 1.363-.434 1.904c-.29.532-.695.943-1.218 1.232-.523.29-1.139.434-1.848.434Zm0-1.33c.523 0 .943-.187 1.26-.56.317-.383.476-.943.476-1.68 0-.747-.159-1.302-.476-1.666-.317-.373-.737-.56-1.26-.56s-.943.187-1.26.56c-.317.364-.476.92-.476 1.666 0 .737.159 1.297.476 1.68.317.373.737.56 1.26.56Zm7.454 1.302c-.486 0-.822-.243-1.008-.728l-2.03-5.18c-.122-.327-.117-.602.014-.826.14-.224.382-.336.728-.336a.79.79 0 0 1 .504.154c.13.093.242.275.336.546l1.54 4.214 1.582-4.326c.149-.392.415-.588.798-.588.392 0 .658.196.798.588l1.582 4.368 1.554-4.298c.093-.252.21-.425.35-.518a.907.907 0 0 1 .49-.14c.336 0 .555.121.658.364.102.233.093.5-.028.798l-2.016 5.18c-.196.485-.532.728-1.008.728-.495 0-.831-.243-1.008-.728l-1.428-3.794-1.4 3.78c-.178.495-.514.742-1.008.742Zm10.157 0c-.579 0-.868-.299-.868-.896v-5.292c0-.588.285-.882.854-.882.57 0 .854.294.854.882v.294c.233-.392.546-.69.938-.896.402-.205.85-.308 1.344-.308 1.615 0 2.422.938 2.422 2.814v3.388c0 .597-.29.896-.868.896-.588 0-.882-.299-.882-.896v-3.304c0-.532-.103-.92-.308-1.162-.196-.243-.504-.364-.924-.364-.513 0-.924.163-1.232.49-.299.317-.448.742-.448 1.274v3.066c0 .597-.294.896-.882.896Zm9.66.028c-1.56 0-2.338-.873-2.338-2.618V15.9c0-.588.289-.882.868-.882.588 0 .882.294.882.882v6.538c0 .84.35 1.26 1.05 1.26h.21l.196-.028c.13-.019.219.019.266.112.046.084.07.261.07.532 0 .233-.047.415-.14.546-.094.13-.248.21-.462.238a4.252 4.252 0 0 1-.602.042Zm5.186 0c-.71 0-1.325-.145-1.848-.434-.523-.29-.929-.7-1.218-1.232-.29-.541-.434-1.176-.434-1.904s.145-1.358.434-1.89c.29-.532.695-.943 1.218-1.232.523-.29 1.139-.434 1.848-.434.71 0 1.325.145 1.848.434.523.29.929.7 1.218 1.232.29.532.434 1.162.434 1.89s-.145 1.363-.434 1.904c-.29.532-.695.943-1.218 1.232-.523.29-1.139.434-1.848.434Zm0-1.33c.523 0 .943-.187 1.26-.56.317-.383.476-.943.476-1.68 0-.747-.159-1.302-.476-1.666-.317-.373-.737-.56-1.26-.56s-.943.187-1.26.56c-.317.364-.476.92-.476 1.666 0 .737.159 1.297.476 1.68.317.373.737.56 1.26.56Zm7.198 1.33c-.494 0-.938-.093-1.33-.28a2.41 2.41 0 0 1-.91-.784 1.969 1.969 0 0 1-.322-1.106c0-.504.131-.9.392-1.19.262-.299.686-.513 1.274-.644.588-.13 1.377-.196 2.366-.196h.49v-.294c0-.467-.102-.803-.308-1.008-.205-.205-.55-.308-1.036-.308-.27 0-.564.033-.882.098a4.696 4.696 0 0 0-.98.336c-.224.103-.41.117-.56.042a.655.655 0 0 1-.308-.378.866.866 0 0 1 .028-.532c.075-.177.22-.308.434-.392a6.36 6.36 0 0 1 1.232-.378 6.016 6.016 0 0 1 1.092-.112c.999 0 1.741.233 2.226.7.486.457.728 1.171.728 2.142v3.36c0 .597-.27.896-.812.896-.55 0-.826-.299-.826-.896v-.308a1.95 1.95 0 0 1-.756.91c-.345.215-.756.322-1.232.322Zm.364-1.204a1.49 1.49 0 0 0 1.134-.476c.308-.317.462-.719.462-1.204v-.308h-.476c-.877 0-1.488.07-1.834.21-.336.13-.504.373-.504.728 0 .308.108.56.322.756.215.196.514.294.896.294Zm7.671 1.204c-.598 0-1.125-.145-1.582-.434-.448-.29-.798-.7-1.05-1.232-.252-.541-.378-1.176-.378-1.904 0-.737.126-1.367.378-1.89.252-.532.602-.943 1.05-1.232.457-.29.984-.434 1.582-.434.485 0 .924.107 1.316.322.392.215.686.5.882.854V15.9c0-.588.289-.882.868-.882.588 0 .882.294.882.882v8.316c0 .597-.29.896-.868.896-.579 0-.868-.299-.868-.896v-.294a2.2 2.2 0 0 1-.882.896 2.724 2.724 0 0 1-1.33.322Zm.49-1.33c.522 0 .942-.187 1.26-.56.317-.383.476-.943.476-1.68 0-.747-.159-1.302-.476-1.666-.318-.373-.738-.56-1.26-.56-.523 0-.943.187-1.26.56-.318.364-.476.92-.476 1.666 0 .737.158 1.297.476 1.68.317.373.737.56 1.26.56Z" fill="#fff"/><path d="M29 20.625v3.5a1.75 1.75 0 0 1-1.75 1.75h-10.5a1.75 1.75 0 0 1-1.75-1.75v-3.5m7 .875V11m0 10.5L18.5 18m3.5 3.5 3.5-3.5" stroke="#fff" stroke-width="1.5" stroke-linecap="round" stroke-linejoin="round"/></svg>