<svg width="135" height="40" fill="none" xmlns="http://www.w3.org/2000/svg"><path fill-rule="evenodd" clip-rule="evenodd" d="M129.998 40H5.002A5.015 5.015 0 0 1 0 35V5c0-2.756 2.245-5 5.002-5h124.996A5.01 5.01 0 0 1 135 5v30c0 2.746-2.248 5-5.002 5Z" fill="#212529"/><path d="M71.118 13.232c-.901 0-1.661-.317-2.262-.94a3.209 3.209 0 0 1-.914-2.294c0-.91.308-1.681.914-2.292.599-.624 1.359-.94 2.26-.94.892 0 1.651.316 2.263.94.605.63.913 1.401.913 2.292-.01.912-.317 1.683-.913 2.291-.599.629-1.359.943-2.26.943Zm-26.824 0a3.136 3.136 0 0 1-2.273-.928c-.62-.613-.936-1.389-.936-2.304 0-.915.316-1.69.936-2.304.614-.616 1.379-.928 2.273-.928.437 0 .862.087 1.269.264.4.173.725.407.966.694l.06.072-.673.663-.07-.082c-.38-.454-.889-.676-1.562-.676-.601 0-1.125.215-1.557.639-.435.426-.656.985-.656 1.66 0 .676.221 1.235.656 1.661.432.424.956.639 1.557.639.64 0 1.18-.215 1.6-.639.248-.249.402-.598.456-1.04h-2.158v-.932h3.085l.012.085c.022.157.045.319.045.468 0 .86-.258 1.556-.77 2.07-.581.609-1.341.918-2.26.918ZM79.96 13.1h-.951l-2.913-4.681.024.843v3.835h-.95V6.9h1.084l.03.048 2.74 4.409-.025-.84V6.9h.96v6.2Zm-15.99 0h-.963V7.833h-1.671V6.9h4.304v.933h-1.672V13.1h.003Zm-3.419 0h-.961V6.9h.961v6.2Zm-5.402 0h-.96V7.833h-1.672V6.9h4.304v.933h-1.672V13.1Zm-3.24-.01h-3.686V6.9h3.685v.933h-2.722v1.7h2.457v.923h-2.457v1.701h2.722v.933Zm17.652-1.44c.43.432.951.65 1.557.65.624 0 1.133-.213 1.558-.65.422-.423.635-.98.635-1.65 0-.67-.213-1.23-.633-1.65a2.126 2.126 0 0 0-1.557-.65c-.623 0-1.132.213-1.555.65-.422.423-.636.98-.636 1.65 0 .67.212 1.23.631 1.65Z" fill="#fff"/><path fill-rule="evenodd" clip-rule="evenodd" d="M67.853 21.756c-2.347 0-4.25 1.788-4.25 4.254 0 2.444 1.915 4.254 4.25 4.254 2.347 0 4.249-1.8 4.249-4.254 0-2.466-1.902-4.254-4.25-4.254Zm0 6.822c-1.284 0-2.39-1.067-2.39-2.578 0-1.534 1.108-2.579 2.39-2.579 1.284 0 2.389 1.045 2.389 2.579.002 1.521-1.105 2.578-2.39 2.578Zm-9.271-6.822c-2.347 0-4.25 1.788-4.25 4.254 0 2.444 1.915 4.254 4.25 4.254 2.346 0 4.249-1.8 4.249-4.254 0-2.466-1.905-4.254-4.25-4.254Zm0 6.822c-1.284 0-2.39-1.067-2.39-2.578 0-1.534 1.108-2.579 2.39-2.579 1.284 0 2.389 1.045 2.389 2.579 0 1.521-1.105 2.578-2.39 2.578ZM47.55 23.055v1.8h4.304c-.132 1.01-.465 1.756-.974 2.267-.63.634-1.604 1.322-3.32 1.322-2.645 0-4.714-2.145-4.714-4.8 0-2.656 2.069-4.801 4.714-4.801 1.428 0 2.468.566 3.24 1.29l1.272-1.278c-1.073-1.032-2.5-1.823-4.502-1.823-3.629 0-6.674 2.968-6.674 6.601 0 3.644 3.043 6.601 6.674 6.601 1.96 0 3.43-.643 4.592-1.855 1.184-1.19 1.56-2.868 1.56-4.222 0-.421-.033-.8-.1-1.122h-6.075c.003-.003.003.02.003.02Zm45.123 1.401c-.355-.955-1.428-2.71-3.628-2.71-2.18 0-3.994 1.723-3.994 4.254 0 2.389 1.793 4.254 4.205 4.254 1.937 0 3.064-1.19 3.529-1.887l-1.438-.968c-.477.71-1.14 1.177-2.081 1.177-.952 0-1.617-.434-2.06-1.29l5.666-2.356c0 .003-.199-.474-.199-.474Zm-5.777 1.422c-.044-1.644 1.272-2.479 2.213-2.479.743 0 1.361.367 1.572.9l-3.785 1.579ZM82.294 30h1.86V17.501h-1.86V30Zm-3.054-7.3h-.067c-.42-.5-1.217-.954-2.236-.954-2.113 0-4.06 1.867-4.06 4.267 0 2.388 1.937 4.234 4.06 4.234 1.006 0 1.816-.456 2.236-.968h.067v.611c0 1.624-.865 2.499-2.258 2.499-1.14 0-1.848-.823-2.136-1.511l-1.617.678c.465 1.122 1.704 2.511 3.75 2.511 2.181 0 4.029-1.289 4.029-4.434V22H79.25v.7h-.01Zm-2.136 5.878c-1.284 0-2.357-1.077-2.357-2.566 0-1.5 1.073-2.588 2.357-2.588 1.271 0 2.257 1.1 2.257 2.588.013 1.49-.983 2.566-2.257 2.566Zm24.279-11.077h-4.448V30h1.86v-4.733h2.59c2.059 0 4.083-1.499 4.083-3.878s-2.016-3.888-4.085-3.888Zm.054 6.02h-2.644v-4.29h2.644c1.394 0 2.181 1.155 2.181 2.145 0 .98-.797 2.145-2.181 2.145Zm11.487-1.788c-1.351 0-2.744.601-3.321 1.91l1.649.689c.356-.689 1.006-.923 1.694-.923.964 0 1.937.579 1.96 1.61v.133c-.333-.19-1.063-.479-1.937-.479-1.781 0-3.587.978-3.587 2.81 0 1.68 1.461 2.756 3.087 2.756 1.25 0 1.938-.566 2.367-1.222h.067v.968h1.793v-4.788c0-2.23-1.649-3.464-3.772-3.464Zm-.234 6.845c-.608 0-1.46-.299-1.46-1.067 0-.967 1.063-1.334 1.97-1.334.819 0 1.207.177 1.693.422a2.242 2.242 0 0 1-2.203 1.98ZM123.238 22l-2.136 5.421h-.067L118.822 22h-2.001l3.32 7.578-1.892 4.213h1.937L125.294 22h-2.056Zm-16.744 8h1.86V17.501h-1.86V30Z" fill="#fff"/><path fill-rule="evenodd" clip-rule="evenodd" d="M10.391 7.534c-.288.311-.454.788-.454 1.411v22.112c0 .624.166 1.1.464 1.4l.077.067 12.338-12.39v-.276L10.468 7.466l-.077.068Z" fill="url(#a)"/><path fill-rule="evenodd" clip-rule="evenodd" d="m26.922 24.277-4.116-4.132v-.29l4.116-4.132.089.055 4.868 2.778c1.393.788 1.393 2.09 0 2.888l-4.868 2.778-.09.055Z" fill="url(#b)"/><path fill-rule="evenodd" clip-rule="evenodd" d="M27.01 24.222 22.807 20 10.391 32.466c.455.49 1.217.544 2.069.068l14.55-8.312Z" fill="url(#c)"/><path fill-rule="evenodd" clip-rule="evenodd" d="m27.01 15.778-14.55-8.3c-.852-.488-1.617-.42-2.069.068L22.806 20l4.205-4.222Z" fill="url(#d)"/><path opacity=".2" fill-rule="evenodd" clip-rule="evenodd" d="M26.922 24.132 12.47 32.377c-.807.466-1.528.433-1.992.01l-.077.077.077.067c.464.422 1.185.456 1.992-.01l14.55-8.3-.098-.089Z" fill="#000"/><path opacity=".12" fill-rule="evenodd" clip-rule="evenodd" d="m31.879 21.3-4.97 2.832.09.09 4.867-2.778c.698-.4 1.04-.923 1.04-1.444-.041.479-.396.933-1.027 1.3Z" fill="#000"/><path opacity=".25" fill-rule="evenodd" clip-rule="evenodd" d="m12.46 7.623 19.419 11.078c.63.356.986.823 1.04 1.299 0-.521-.342-1.045-1.04-1.444L12.459 7.48c-1.392-.8-2.522-.132-2.522 1.466v.145c0-1.601 1.13-2.257 2.523-1.467Z" fill="#fff"/><defs><linearGradient id="a" x1="21.709" y1="8.707" x2="1.935" y2="13.954" gradientUnits="userSpaceOnUse"><stop stop-color="#00A0FF"/><stop offset=".007" stop-color="#00A1FF"/><stop offset=".26" stop-color="#00BEFF"/><stop offset=".512" stop-color="#00D2FF"/><stop offset=".76" stop-color="#00DFFF"/><stop offset="1" stop-color="#00E3FF"/></linearGradient><linearGradient id="b" x1="33.696" y1="20" x2="9.598" y2="20" gradientUnits="userSpaceOnUse"><stop stop-color="#FFE000"/><stop offset=".409" stop-color="#FFBD00"/><stop offset=".775" stop-color="orange"/><stop offset="1" stop-color="#FF9C00"/></linearGradient><linearGradient id="c" x1="24.725" y1="22.297" x2="8.762" y2="49.054" gradientUnits="userSpaceOnUse"><stop stop-color="#FF3A44"/><stop offset="1" stop-color="#C31162"/></linearGradient><linearGradient id="d" x1="7.265" y1=".179" x2="14.386" y2="12.129" gradientUnits="userSpaceOnUse"><stop stop-color="#32A071"/><stop offset=".069" stop-color="#2DA771"/><stop offset=".476" stop-color="#15CF74"/><stop offset=".801" stop-color="#06E775"/><stop offset="1" stop-color="#00F076"/></linearGradient></defs></svg>