<svg width="135" height="40" fill="none" xmlns="http://www.w3.org/2000/svg"><path d="M135 35.99c0 2.216-1.738 4.01-3.888 4.01H3.892C1.745 40 0 38.206 0 35.99V4.015C0 1.8 1.744 0 3.893 0H131.11c2.151 0 3.888 1.8 3.888 4.015L135 35.99Z" fill="#212529"/><path d="M43.702 25.112c-.476 0-.802-.252-.98-.756l-2.926-8.274c-.102-.299-.084-.55.056-.756.15-.205.397-.308.742-.308.252 0 .448.06.588.182.14.112.252.294.336.546l2.24 6.664 2.352-6.65c.178-.495.476-.742.896-.742.224 0 .402.06.532.182.131.121.243.313.336.574l2.31 6.734 2.31-6.762c.084-.243.196-.425.336-.546.14-.121.332-.182.574-.182.299 0 .518.103.658.308.14.205.159.457.056.756l-2.954 8.288c-.093.252-.214.439-.364.56-.149.121-.35.182-.602.182s-.452-.06-.602-.182c-.149-.121-.27-.313-.364-.574l-2.282-6.482-2.296 6.496c-.093.252-.214.439-.364.56-.14.121-.336.182-.588.182Zm14.432.028c-.775 0-1.442-.145-2.002-.434a3.13 3.13 0 0 1-1.302-1.232c-.3-.532-.448-1.162-.448-1.89 0-.71.144-1.33.434-1.862a3.256 3.256 0 0 1 1.218-1.246c.522-.308 1.115-.462 1.778-.462.97 0 1.736.308 2.296.924.569.616.854 1.456.854 2.52 0 .345-.224.518-.672.518h-4.228c.13 1.223.83 1.834 2.1 1.834.242 0 .513-.028.812-.084.308-.065.597-.173.868-.322.242-.14.448-.182.616-.126a.509.509 0 0 1 .35.294c.074.15.084.317.028.504-.047.177-.178.331-.392.462-.327.205-.705.36-1.134.462a5.46 5.46 0 0 1-1.176.14Zm-.252-5.936c-.514 0-.93.159-1.246.476-.318.317-.51.747-.574 1.288h3.444c-.038-.57-.196-1.003-.476-1.302-.271-.308-.654-.462-1.148-.462Zm8.414 5.936a2.75 2.75 0 0 1-1.345-.322 2.2 2.2 0 0 1-.881-.896v.294c0 .597-.285.896-.854.896-.58 0-.869-.299-.869-.896V15.9c0-.588.29-.882.868-.882.588 0 .882.294.882.882v3.262c.206-.345.5-.62.883-.826.391-.215.83-.322 1.316-.322.606 0 1.133.145 1.581.434.449.29.799.7 1.05 1.232.252.523.378 1.153.378 1.89 0 .728-.126 1.363-.378 1.904a2.87 2.87 0 0 1-1.064 1.232c-.448.29-.97.434-1.567.434Zm-.49-1.33c.522 0 .942-.187 1.26-.56.317-.383.475-.943.475-1.68 0-.747-.158-1.302-.475-1.666-.318-.373-.738-.56-1.26-.56-.523 0-.943.187-1.26.56-.318.364-.477.92-.477 1.666 0 .737.16 1.297.477 1.68.317.373.737.56 1.26.56Zm12.377 1.302c-.476 0-.803-.252-.98-.756l-2.926-8.274c-.103-.299-.084-.55.056-.756.15-.205.397-.308.742-.308.252 0 .448.06.588.182.14.112.252.294.336.546l2.24 6.664 2.352-6.65c.177-.495.476-.742.896-.742.224 0 .401.06.532.182.13.121.242.313.336.574l2.31 6.734 2.31-6.762c.084-.243.196-.425.336-.546.14-.121.331-.182.574-.182.298 0 .518.103.658.308.14.205.158.457.056.756l-2.954 8.288c-.093.252-.215.439-.364.56-.15.121-.35.182-.602.182s-.453-.06-.602-.182c-.15-.121-.27-.313-.364-.574l-2.282-6.482-2.296 6.496c-.094.252-.215.439-.364.56-.14.121-.336.182-.588.182Zm13.366.028a3.05 3.05 0 0 1-1.33-.28 2.41 2.41 0 0 1-.91-.784 1.969 1.969 0 0 1-.322-1.106c0-.504.13-.9.392-1.19.261-.299.686-.513 1.274-.644.588-.13 1.376-.196 2.366-.196h.49v-.294c0-.467-.103-.803-.308-1.008-.206-.205-.55-.308-1.036-.308-.27 0-.565.033-.882.098a4.696 4.696 0 0 0-.98.336c-.224.103-.41.117-.56.042a.655.655 0 0 1-.308-.378.866.866 0 0 1 .028-.532c.074-.177.22-.308.434-.392a6.36 6.36 0 0 1 1.232-.378 6.016 6.016 0 0 1 1.092-.112c.998 0 1.74.233 2.226.7.485.457.728 1.171.728 2.142v3.36c0 .597-.27.896-.812.896-.55 0-.826-.299-.826-.896v-.308a1.95 1.95 0 0 1-.756.91c-.346.215-.756.322-1.232.322Zm.364-1.204a1.49 1.49 0 0 0 1.134-.476c.308-.317.462-.719.462-1.204v-.308h-.476c-.878 0-1.489.07-1.834.21-.336.13-.504.373-.504.728 0 .308.107.56.322.756.214.196.513.294.896.294Zm7.376 1.204c-1.559 0-2.338-.873-2.338-2.618V15.9c0-.588.29-.882.868-.882.588 0 .882.294.882.882v6.538c0 .84.35 1.26 1.05 1.26h.21l.196-.028c.131-.019.219.019.266.112.047.084.07.261.07.532 0 .233-.047.415-.14.546-.093.13-.247.21-.462.238a4.252 4.252 0 0 1-.602.042Zm4.471 0c-1.559 0-2.338-.873-2.338-2.618V15.9c0-.588.289-.882.868-.882.588 0 .882.294.882.882v6.538c0 .84.35 1.26 1.05 1.26h.21l.196-.028c.13-.019.219.019.266.112.046.084.07.261.07.532 0 .233-.047.415-.14.546-.094.13-.248.21-.462.238a4.256 4.256 0 0 1-.602.042Zm5.438 0c-.775 0-1.442-.145-2.002-.434a3.13 3.13 0 0 1-1.302-1.232c-.299-.532-.448-1.162-.448-1.89 0-.71.145-1.33.434-1.862a3.26 3.26 0 0 1 1.218-1.246c.523-.308 1.115-.462 1.778-.462.971 0 1.736.308 2.296.924.569.616.854 1.456.854 2.52 0 .345-.224.518-.672.518h-4.228c.131 1.223.831 1.834 2.1 1.834.243 0 .513-.028.812-.084.308-.065.597-.173.868-.322.243-.14.448-.182.616-.126a.508.508 0 0 1 .35.294c.075.15.084.317.028.504-.047.177-.177.331-.392.462-.327.205-.705.36-1.134.462a5.46 5.46 0 0 1-1.176.14Zm-.252-5.936c-.513 0-.929.159-1.246.476-.317.317-.509.747-.574 1.288h3.444c-.037-.57-.196-1.003-.476-1.302-.271-.308-.653-.462-1.148-.462Zm7.575 5.936c-1.811 0-2.716-.896-2.716-2.688V19.47h-.728c-.467 0-.7-.22-.7-.658 0-.439.233-.658.7-.658h.728V16.88c0-.588.294-.882.882-.882.578 0 .868.294.868.882v1.274h1.484c.466 0 .7.22.7.658 0 .439-.234.658-.7.658h-1.484v2.884c0 .448.098.784.294 1.008.196.224.513.336.952.336.158 0 .298-.014.42-.042.121-.028.228-.047.322-.056a.32.32 0 0 1 .28.112c.074.075.112.233.112.476 0 .187-.033.355-.098.504a.509.509 0 0 1-.322.294c-.122.037-.28.07-.476.098a2.816 2.816 0 0 1-.518.056Z" fill="#fff"/><path d="M24.059 14h3.294c.91 0 1.647.737 1.647 1.647v9.882c0 .91-.737 1.648-1.647 1.648h-3.294m.823-6.589H15m9.882 0-3.294 3.294m3.294-3.294-3.294-3.294" stroke="#fff" stroke-width="1.5" stroke-linecap="round" stroke-linejoin="round"/></svg>