<svg width="179" height="45" fill="none" xmlns="http://www.w3.org/2000/svg"><path fill-rule="evenodd" clip-rule="evenodd" d="M26.566.6c1.654.729 3.338 2.527 3.89 4.154.23.671.353 2.208.28 3.46-.165 2.84-1.369 4.64-4.004 5.985-5.95 3.04-12.76-2.19-11.18-8.585.467-1.89 2.2-4.03 4.022-4.965 1.647-.844 5.133-.87 6.992-.05Zm-6.553 1.587c-1.661.795-2.89 2.77-2.889 4.648 0 .842.185 1.827.41 2.189.357.57.384.5.207-.523-.424-2.457 1.169-5.47 3.39-6.409.567-.24.803-.439.524-.442-.28-.003-1.018.239-1.642.537Zm63.86 3.78c.258.25.407 1.51.407 3.437v3.043l2.624.096 2.623.095.114.97c.16 1.362-.657 1.824-3.225 1.824H84.28v4.94c0 6.74.53 7.834 4.062 8.374 1.83.28 2.37.653 2.37 1.637 0 1.172-.903 1.653-2.94 1.565-2.06-.09-3.254-.596-4.574-1.946-1.72-1.758-1.964-2.874-1.964-8.973v-5.597h-.994c-.546 0-1.394-.148-1.883-.329-.747-.275-.873-.5-.784-1.396.103-1.042.15-1.07 1.883-1.168l1.778-.1V9.402c0-3.198.25-3.828 1.523-3.828.39 0 .893.178 1.117.395Zm-11.23 6.93c.954.474 2.352 1.541 3.106 2.373 2.14 2.361 2.438 3.63 2.438 10.418 0 5.783-.011 5.87-.762 6.142-1.35.488-2.104-.05-2.22-1.585l-.106-1.38-1.32 1.156c-1.72 1.51-4.484 2.306-7.256 2.09-3.602-.281-6.609-2.276-8.206-5.445-.788-1.563-.941-2.293-.944-4.496-.01-6.442 4.37-10.522 10.997-10.24 1.916.081 2.964.319 4.273.968Zm31.655-.518c2.508.776 5.368 3.528 6.203 5.97.816 2.385.605 6.532-.432 8.483-.949 1.784-2.789 3.504-4.758 4.445-1.279.612-2.125.75-4.613.75-2.649 0-3.298-.12-4.97-.917-4.283-2.042-6.419-6.594-5.378-11.462 1.265-5.916 7.62-9.228 13.948-7.27Zm19.338-.215c.7.188 1.885.909 2.634 1.6 1.248 1.153 1.389 1.207 1.695.651 1.017-1.844 5.904-3.138 8.595-2.276 1.642.526 3.427 2.066 4.353 3.754.68 1.24.746 1.89.838 8.247.055 3.83-.04 7.102-.212 7.352-.447.65-2.118.558-2.647-.145-.336-.446-.449-2.163-.449-6.81 0-5.025-.104-6.426-.544-7.325-1.323-2.706-5.189-3.27-7.437-1.086-1.516 1.473-1.836 3.222-1.836 10.041 0 5.287-.015 5.393-.762 5.663-.825.297-1.631.123-2.026-.437-.137-.194-.252-3.014-.256-6.267-.008-6.618-.232-7.84-1.686-9.193-1.439-1.338-4.084-1.541-5.764-.442-2.147 1.404-2.368 2.273-2.375 9.306-.003 3.434-.138 6.447-.3 6.695-.424.65-2.102.558-2.631-.145-.566-.752-.656-17.555-.099-18.566.47-.851 2.167-.847 2.784.008.457.633.489.631 2.107-.164 1.787-.879 3.876-1.039 6.018-.461Zm32.485-.003c3.176.856 5.797 3.996 6.43 7.703.367 2.155.353 2.262-.391 2.847-.7.55-1.48.607-8.226.607h-7.452l.22 1.067c.121.586.647 1.579 1.169 2.205 2.297 2.755 6.059 3.416 9.666 1.7 2.208-1.051 3.155-1.006 3.458.165.269 1.038-.232 1.565-2.53 2.66-1.67.796-2.297.91-4.959.898-2.617-.012-3.289-.137-4.769-.883-2.017-1.017-3.679-2.742-4.661-4.837-.53-1.132-.704-2.183-.713-4.322-.011-2.593.086-3.014 1.176-5.094 1.246-2.38 3.21-4.048 5.537-4.702 1.471-.414 4.536-.421 6.045-.014Zm11.231 3.816c2.468 3.134 3.081 3.738 3.385 3.335.205-.27 1.579-1.993 3.054-3.829 2.438-3.034 2.784-3.338 3.802-3.338.914 0 1.159.152 1.334.826.117.454.069 1.01-.106 1.233a607.53 607.53 0 0 1-3.022 3.692c-1.486 1.808-2.816 3.473-2.956 3.7-.162.263.936 1.883 2.999 4.427 2.467 3.044 3.229 4.214 3.153 4.844-.083.694-.295.844-1.285.91-1.136.074-1.308-.076-4.231-3.696-1.676-2.075-3.123-3.773-3.216-3.773-.093 0-1.54 1.698-3.216 3.773-2.923 3.62-3.095 3.77-4.231 3.695-.996-.066-1.201-.213-1.287-.926-.078-.656.627-1.717 3.132-4.71 1.778-2.124 3.232-4.005 3.232-4.18 0-.173-1.371-2.018-3.046-4.1-3.598-4.468-3.938-5.718-1.552-5.712.933.002 1.365.41 4.057 3.83Zm-150.04-1.316c1.078.947.722 2.086-1.524 4.878-2.186 2.717-3.353 3.355-4.478 2.448-.944-.76-.542-2.097 1.384-4.608 2.625-3.423 3.338-3.842 4.618-2.718Zm47.673.62c-2.802 1.22-4.4 3.662-4.4 6.723 0 7.6 10.1 10.053 13.624 3.307.618-1.183.931-2.294.931-3.307 0-2.147-1.456-4.817-3.307-6.062-1.774-1.194-4.927-1.498-6.848-.662Zm32.836.017c-2.78 1.17-4.401 3.639-4.401 6.706 0 4.184 3.112 7.241 7.352 7.222 6.192-.028 9.443-7.253 5.403-12.011-1.898-2.235-5.585-3.081-8.354-1.917Zm52.639-.057c-1.275.554-3.062 2.365-3.534 3.58-.747 1.926-.937 1.868 6.206 1.868h6.565l-.334-1.276c-.424-1.623-2.096-3.603-3.535-4.186-1.404-.57-4.041-.562-5.368.014ZM28.508 16.993c.714.779 2.622 5.63 2.624 6.67.002 1.078-.578 1.627-1.718 1.627-1.173 0-1.366-.257-2.818-3.76-1.384-3.34-1.433-3.68-.657-4.512.708-.76 1.886-.771 2.57-.026Zm-18.184 6.806c2.005 1.141 3.36 3.762 3.133 6.06-.23 2.332-1.24 3.976-3.148 5.125-4.29 2.584-9.847.099-10.247-4.582-.225-2.636.135-3.9 1.545-5.426 2.252-2.438 5.686-2.901 8.717-1.177Zm-5.764.966c-1.983.85-3.45 3.412-3 5.242.239.972.268.928.495-.737.297-2.171 1.076-3.263 3.02-4.226 1.59-.79 1.186-1.008-.515-.279Zm34.163 2.79c1.666.728 3.656 2.621 4.476 4.258.88 1.758 1.024 5.622.28 7.514C42.093 42.849 38.76 45 34.688 45c-5.513 0-9.29-3.668-9.299-9.03-.006-3.42 1.242-5.653 4.494-8.042 1.85-1.36 6.165-1.541 8.84-.373Zm-7.591 1.514c-3.24 1.662-4.928 5.845-3.608 8.847.38.865.409.733.289-1.328-.202-3.477 1.157-5.915 4.083-7.32.79-.38 2.792-.856 2.792-1.02-.078-.165-2 .022-3.556.821Zm-11.258 2.167c3.346.877 4.15 1.369 4.15 2.54 0 1.93-1.04 2.094-5.585.876-3.67-.983-4.477-1.774-3.543-3.469.458-.83 1.66-.816 4.978.053Z" fill="#fff"/></svg>