<svg width="135" height="40" viewBox="0 0 135 40" fill="none" xmlns="http://www.w3.org/2000/svg">
<path d="M135 35.9904C135 38.2056 133.262 40 131.112 40H3.89257C1.744 40 0 38.2056 0 35.9904V4.01487C0 1.80067 1.744 0 3.89257 0H131.111C133.262 0 134.999 1.80067 134.999 4.01487L135 35.9904Z" fill="#212529"/>
<path d="M29.646 19.7801C29.6166 16.406 32.3218 14.7644 32.4455 14.688C30.9135 12.3817 28.5388 12.0666 27.7043 12.0414C25.7098 11.8247 23.7752 13.2736 22.7592 13.2736C21.723 13.2736 20.1584 12.0624 18.4722 12.098C16.3024 12.1325 14.2724 13.4296 13.1591 15.4439C10.8615 19.5509 12.5751 25.5862 14.7764 28.906C15.8775 30.5318 17.1642 32.3471 18.8484 32.2833C20.4961 32.2131 21.1116 31.1987 23.0999 31.1987C25.07 31.1987 25.648 32.2833 27.3656 32.2424C29.134 32.2131 30.2473 30.6093 31.3099 28.9688C32.5824 27.1053 33.0935 25.2701 33.1137 25.1759C33.0722 25.1612 29.6795 23.8243 29.646 19.7801Z" fill="white"/>
<path d="M26.4014 9.85762C27.2875 8.71336 27.8939 7.15662 27.7256 5.57684C26.4429 5.63547 24.8388 6.49288 23.9151 7.61202C23.0979 8.5982 22.3678 10.2146 22.5564 11.7347C23.9973 11.8457 25.4766 10.9841 26.4014 9.85762Z" fill="white"/>
<path d="M53.4912 32.0498H51.1885L49.9272 27.9575H45.5428L44.3413 32.0498H42.0994L46.4432 18.1177H49.1261L53.4912 32.0498ZM49.5469 26.2406L48.4062 22.6026C48.2856 22.231 48.0595 21.3557 47.7259 19.978H47.6853C47.5525 20.5706 47.3385 21.4458 47.0445 22.6026L45.9241 26.2406H49.5469Z" fill="white"/>
<path d="M64.662 26.9033C64.662 28.6118 64.2148 29.9623 63.3205 30.9537C62.5195 31.8363 61.5248 32.277 60.3374 32.277C59.0558 32.277 58.1351 31.8017 57.5744 30.8511H57.5338V36.1432H55.3721V25.3109C55.3721 24.2368 55.3447 23.1344 55.292 22.0038H57.1932L57.3138 23.5961H57.3544C58.0753 22.3963 59.1694 21.7975 60.6376 21.7975C61.7854 21.7975 62.7435 22.2655 63.5101 23.2025C64.2787 24.1405 64.662 25.3737 64.662 26.9033ZM62.4596 26.9849C62.4596 26.0071 62.2467 25.201 61.8188 24.5666C61.3514 23.9049 60.7237 23.5741 59.9369 23.5741C59.4036 23.5741 58.9189 23.7584 58.4859 24.1216C58.052 24.4881 57.7681 24.9665 57.6352 25.559C57.5683 25.8354 57.5349 26.0615 57.5349 26.2395V27.9146C57.5349 28.6453 57.7518 29.2619 58.1858 29.7655C58.6198 30.269 59.1836 30.5203 59.8771 30.5203C60.6913 30.5203 61.325 30.1958 61.7783 29.5488C62.2325 28.9007 62.4596 28.0465 62.4596 26.9849Z" fill="white"/>
<path d="M75.853 26.9033C75.853 28.6118 75.4058 29.9623 74.5105 30.9537C73.7105 31.8363 72.7158 32.277 71.5284 32.277C70.2468 32.277 69.3261 31.8017 68.7664 30.8511H68.7259V36.1432H66.5641V25.3109C66.5641 24.2368 66.5367 23.1344 66.484 22.0038H68.3852L68.5058 23.5961H68.5464C69.2663 22.3963 70.3604 21.7975 71.8296 21.7975C72.9764 21.7975 73.9346 22.2655 74.7031 23.2025C75.4687 24.1405 75.853 25.3737 75.853 26.9033ZM73.6506 26.9849C73.6506 26.0071 73.4367 25.201 73.0088 24.5666C72.5414 23.9049 71.9158 23.5741 71.1279 23.5741C70.5936 23.5741 70.1099 23.7584 69.6759 24.1216C69.242 24.4881 68.9591 24.9665 68.8262 25.559C68.7603 25.8354 68.7259 26.0615 68.7259 26.2395V27.9146C68.7259 28.6453 68.9428 29.2619 69.3748 29.7655C69.8088 30.268 70.3725 30.5203 71.0681 30.5203C71.8823 30.5203 72.516 30.1958 72.9693 29.5488C73.4235 28.9007 73.6506 28.0465 73.6506 26.9849Z" fill="white"/>
<path d="M88.3652 28.1428C88.3652 29.3279 87.9667 30.2921 87.1667 31.0364C86.2876 31.8499 85.0637 32.2561 83.4911 32.2561C82.0391 32.2561 80.8751 31.9671 79.994 31.3882L80.4949 29.5278C81.4439 30.1204 82.4852 30.4177 83.6199 30.4177C84.4341 30.4177 85.0678 30.2272 85.5231 29.8482C85.9763 29.4692 86.2024 28.9604 86.2024 28.326C86.2024 27.7607 86.0158 27.2843 85.6417 26.898C85.2696 26.5117 84.648 26.1526 83.7801 25.8208C81.4176 24.911 80.2373 23.5783 80.2373 21.8258C80.2373 20.6805 80.651 19.7414 81.4794 19.0107C82.3048 18.2789 83.4059 17.9135 84.7829 17.9135C86.0108 17.9135 87.0308 18.1344 87.845 18.5752L87.3046 20.3947C86.5441 19.9675 85.6843 19.754 84.722 19.754C83.9616 19.754 83.3674 19.9476 82.9415 20.3329C82.5816 20.6773 82.4011 21.0971 82.4011 21.5944C82.4011 22.1451 82.6069 22.6005 83.0206 22.9585C83.3806 23.2894 84.0346 23.6474 84.9836 24.0337C86.1446 24.5163 86.9974 25.0806 87.5459 25.7276C88.0924 26.3725 88.3652 27.1796 88.3652 28.1428Z" fill="white"/>
<path d="M95.5125 23.6788H93.1297V28.5563C93.1297 29.7969 93.5495 30.4166 94.3911 30.4166C94.7774 30.4166 95.0978 30.3821 95.3513 30.313L95.4111 32.0079C94.9853 32.1723 94.4246 32.255 93.73 32.255C92.8762 32.255 92.2091 31.986 91.7274 31.4489C91.2478 30.9108 91.0065 30.0084 91.0065 28.7406V23.6767H89.587V22.0017H91.0065V20.1623L93.1297 19.5006V22.0017H95.5125V23.6788Z" fill="white"/>
<path d="M106.264 26.9441C106.264 28.4883 105.836 29.756 104.982 30.7475C104.087 31.7682 102.898 32.277 101.417 32.277C99.9892 32.277 98.8526 31.7881 98.0049 30.8103C97.1572 29.8325 96.7334 28.5982 96.7334 27.1105C96.7334 25.5538 97.1694 24.2787 98.0444 23.2872C98.9175 22.2948 100.096 21.7986 101.577 21.7986C103.005 21.7986 104.154 22.2875 105.02 23.2663C105.85 24.2158 106.264 25.4418 106.264 26.9441ZM104.021 27.0163C104.021 26.0898 103.829 25.2952 103.441 24.6325C102.987 23.8306 102.34 23.4307 101.5 23.4307C100.631 23.4307 99.971 23.8316 99.5177 24.6325C99.1294 25.2963 98.9377 26.1034 98.9377 27.0582C98.9377 27.9847 99.1294 28.7793 99.5177 29.4409C99.9852 30.2429 100.638 30.6428 101.481 30.6428C102.306 30.6428 102.954 30.2345 103.421 29.42C103.82 28.7447 104.021 27.9418 104.021 27.0163Z" fill="white"/>
<path d="M113.29 23.9667C113.076 23.9259 112.848 23.9049 112.609 23.9049C111.848 23.9049 111.26 24.2012 110.847 24.7948C110.487 25.3182 110.306 25.9799 110.306 26.7787V32.0498H108.145L108.166 25.1675C108.166 24.0096 108.138 22.9554 108.085 22.0048H109.968L110.047 23.9269H110.106C110.335 23.2663 110.695 22.7345 111.187 22.3356C111.669 21.9765 112.189 21.7975 112.75 21.7975C112.95 21.7975 113.13 21.8122 113.29 21.8383V23.9667Z" fill="white"/>
<path d="M122.958 26.5515C122.958 26.9514 122.933 27.2885 122.879 27.5638H116.394C116.419 28.5563 116.733 29.3153 117.335 29.8387C117.881 30.3067 118.588 30.5412 119.456 30.5412C120.416 30.5412 121.292 30.3831 122.08 30.0659L122.419 31.6153C121.498 32.0299 120.411 32.2361 119.157 32.2361C117.648 32.2361 116.464 31.7776 115.602 30.8616C114.742 29.9455 114.311 28.7154 114.311 27.1723C114.311 25.6574 114.712 24.3959 115.514 23.3898C116.353 22.3157 117.488 21.7787 118.916 21.7787C120.318 21.7787 121.38 22.3157 122.101 23.3898C122.671 24.2431 122.958 25.2983 122.958 26.5515ZM120.897 25.9725C120.911 25.3109 120.77 24.7393 120.477 24.2567C120.103 23.6359 119.528 23.326 118.754 23.326C118.048 23.326 117.473 23.6285 117.034 24.2357C116.674 24.7184 116.46 25.2973 116.394 25.9715H120.897V25.9725Z" fill="white"/>
<path d="M48.8321 9.54673C48.8321 10.7789 48.4742 11.7065 47.7593 12.3294C47.0972 12.9041 46.1563 13.192 44.9375 13.192C44.3332 13.192 43.8161 13.1648 43.3831 13.1104V6.37776C43.9479 6.28354 44.5563 6.23538 45.2133 6.23538C46.3743 6.23538 47.2493 6.49606 47.8395 7.01742C48.5005 7.60682 48.8321 8.44958 48.8321 9.54673ZM47.7117 9.57709C47.7117 8.77831 47.5069 8.16587 47.0972 7.73873C46.6876 7.31264 46.0894 7.09908 45.3015 7.09908C44.9669 7.09908 44.682 7.12211 44.4457 7.17026V12.2886C44.5765 12.3095 44.8158 12.3189 45.1636 12.3189C45.9768 12.3189 46.6045 12.0855 47.0465 11.6185C47.4886 11.1516 47.7117 10.4711 47.7117 9.57709Z" fill="white"/>
<path d="M54.7729 10.6229C54.7729 11.3819 54.563 12.0038 54.1433 12.4916C53.7032 12.9931 53.1202 13.2433 52.3922 13.2433C51.6905 13.2433 51.1318 13.0036 50.7151 12.522C50.2994 12.0415 50.0915 11.4353 50.0915 10.7046C50.0915 9.94034 50.3054 9.31325 50.7354 8.82644C51.1653 8.33963 51.7432 8.0957 52.4712 8.0957C53.1729 8.0957 53.7367 8.33544 54.1635 8.81597C54.5691 9.28289 54.7729 9.8859 54.7729 10.6229ZM53.6708 10.6585C53.6708 10.2031 53.5754 9.81262 53.3858 9.48703C53.1628 9.0934 52.8454 8.89658 52.4327 8.89658C52.0058 8.89658 51.6814 9.0934 51.4583 9.48703C51.2677 9.81262 51.1734 10.2094 51.1734 10.6784C51.1734 11.1338 51.2687 11.5243 51.4583 11.8499C51.6885 12.2435 52.0089 12.4403 52.4226 12.4403C52.8282 12.4403 53.1465 12.2404 53.3757 11.8394C53.5724 11.5076 53.6708 11.1139 53.6708 10.6585Z" fill="white"/>
<path d="M62.7385 8.1962L61.2429 13.1313H60.2695L59.65 10.9883C59.4928 10.4533 59.3651 9.92149 59.2657 9.39385H59.2464C59.1542 9.93615 59.0264 10.4669 58.8621 10.9883L58.2041 13.1313H57.2195L55.8132 8.1962H56.9052L57.4456 10.5423C57.5764 11.0972 57.6839 11.6258 57.7701 12.1263H57.7894C57.8685 11.7138 57.9993 11.1882 58.1838 10.5528L58.8621 8.19724H59.7281L60.378 10.5025C60.5352 11.0647 60.6629 11.606 60.7613 12.1273H60.7907C60.8627 11.6196 60.9712 11.0783 61.1151 10.5025L61.6951 8.19724H62.7385V8.1962Z" fill="white"/>
<path d="M68.2473 13.1313H67.1847V10.3047C67.1847 9.43364 66.8643 8.99813 66.2215 8.99813C65.9061 8.99813 65.6516 9.11748 65.4539 9.35722C65.2582 9.59696 65.1588 9.87962 65.1588 10.2031V13.1302H64.0962V9.60638C64.0962 9.17296 64.083 8.7029 64.0577 8.19411H64.9915L65.0412 8.96568H65.0706C65.1943 8.72594 65.3789 8.52807 65.6212 8.36999C65.9092 8.18573 66.2316 8.09256 66.5845 8.09256C67.0306 8.09256 67.4017 8.24122 67.6968 8.53959C68.0638 8.90496 68.2473 9.45039 68.2473 10.1748V13.1313Z" fill="white"/>
<path d="M71.1776 13.1313H70.116V5.93176H71.1776V13.1313Z" fill="white"/>
<path d="M77.4338 10.6229C77.4338 11.3819 77.2239 12.0038 76.8041 12.4916C76.3641 12.9931 75.7801 13.2433 75.053 13.2433C74.3504 13.2433 73.7917 13.0036 73.376 12.522C72.9602 12.0415 72.7524 11.4353 72.7524 10.7046C72.7524 9.94034 72.9663 9.31325 73.3962 8.82644C73.8262 8.33963 74.4041 8.0957 75.1311 8.0957C75.8338 8.0957 76.3965 8.33544 76.8244 8.81597C77.23 9.28289 77.4338 9.8859 77.4338 10.6229ZM76.3306 10.6585C76.3306 10.2031 76.2353 9.81262 76.0457 9.48703C75.8237 9.0934 75.5053 8.89658 75.0936 8.89658C74.6657 8.89658 74.3412 9.0934 74.1192 9.48703C73.9286 9.81262 73.8343 10.2094 73.8343 10.6784C73.8343 11.1338 73.9296 11.5243 74.1192 11.8499C74.3494 12.2435 74.6698 12.4403 75.0835 12.4403C75.489 12.4403 75.8064 12.2404 76.0356 11.8394C76.2333 11.5076 76.3306 11.1139 76.3306 10.6585Z" fill="white"/>
<path d="M82.5765 13.1313H81.6223L81.5432 12.5628H81.5138C81.1874 13.0161 80.7219 13.2433 80.1176 13.2433C79.6664 13.2433 79.3014 13.0936 79.0266 12.7963C78.7772 12.5262 78.6525 12.1901 78.6525 11.7913C78.6525 11.1882 78.8958 10.7287 79.3856 10.4104C79.8743 10.0921 80.5617 9.93615 81.4469 9.94348V9.85136C81.4469 9.20123 81.1164 8.87669 80.4543 8.87669C79.9828 8.87669 79.5671 8.99918 79.2081 9.24206L78.9921 8.52179C79.4363 8.23808 79.9848 8.0957 80.6317 8.0957C81.8809 8.0957 82.5075 8.77619 82.5075 10.1372V11.9546C82.5075 12.4477 82.5308 12.8403 82.5765 13.1313ZM81.4733 11.4353V10.6742C80.3012 10.6533 79.7151 10.9852 79.7151 11.6688C79.7151 11.9263 79.782 12.1189 79.9189 12.2477C80.0558 12.3765 80.2302 12.4403 80.438 12.4403C80.6713 12.4403 80.8893 12.3639 81.088 12.2121C81.2877 12.0593 81.4104 11.8656 81.4561 11.6279C81.4672 11.5746 81.4733 11.5096 81.4733 11.4353Z" fill="white"/>
<path d="M88.6146 13.1313H87.6716L87.622 12.3388H87.5925C87.2914 12.9418 86.7783 13.2433 86.0574 13.2433C85.4815 13.2433 85.0019 13.0099 84.6217 12.5429C84.2414 12.076 84.0518 11.4699 84.0518 10.7255C84.0518 9.92674 84.2577 9.27975 84.6713 8.78561C85.0719 8.32498 85.5626 8.09466 86.1466 8.09466C86.7885 8.09466 87.2377 8.31765 87.4932 8.76468H87.5135V5.93176H88.5771V11.8017C88.5771 12.2823 88.5893 12.7251 88.6146 13.1313ZM87.5135 11.0501V10.2272C87.5135 10.0848 87.5033 9.96966 87.4841 9.88172C87.4242 9.6179 87.2955 9.39596 87.0998 9.21694C86.902 9.03792 86.6638 8.94788 86.389 8.94788C85.9925 8.94788 85.6823 9.11015 85.4541 9.43574C85.228 9.76133 85.1134 10.1769 85.1134 10.6847C85.1134 11.1725 85.2219 11.5683 85.4399 11.8729C85.6701 12.1975 85.9804 12.3597 86.3687 12.3597C86.7175 12.3597 86.9963 12.2247 87.2083 11.9535C87.4131 11.7033 87.5135 11.4018 87.5135 11.0501Z" fill="white"/>
<path d="M97.7027 10.6229C97.7027 11.3819 97.4928 12.0038 97.0731 12.4916C96.633 12.9931 96.051 13.2433 95.322 13.2433C94.6213 13.2433 94.0626 13.0036 93.6449 12.522C93.2292 12.0415 93.0213 11.4353 93.0213 10.7046C93.0213 9.94034 93.2352 9.31325 93.6652 8.82644C94.0951 8.33963 94.673 8.0957 95.4021 8.0957C96.1027 8.0957 96.6675 8.33544 97.0934 8.81597C97.4989 9.28289 97.7027 9.8859 97.7027 10.6229ZM96.6016 10.6585C96.6016 10.2031 96.5063 9.81262 96.3167 9.48703C96.0926 9.0934 95.7762 8.89658 95.3625 8.89658C94.9367 8.89658 94.6122 9.0934 94.3881 9.48703C94.1975 9.81262 94.1032 10.2094 94.1032 10.6784C94.1032 11.1338 94.1985 11.5243 94.3881 11.8499C94.6183 12.2435 94.9387 12.4403 95.3524 12.4403C95.758 12.4403 96.0774 12.2404 96.3065 11.8394C96.5022 11.5076 96.6016 11.1139 96.6016 10.6585Z" fill="white"/>
<path d="M103.416 13.1313H102.355V10.3047C102.355 9.43364 102.034 8.99813 101.39 8.99813C101.075 8.99813 100.821 9.11748 100.624 9.35722C100.427 9.59696 100.329 9.87962 100.329 10.2031V13.1302H99.2652V9.60638C99.2652 9.17296 99.253 8.7029 99.2277 8.19411H100.16L100.21 8.96568H100.24C100.364 8.72594 100.549 8.52807 100.79 8.36999C101.079 8.18573 101.401 8.09256 101.754 8.09256C102.2 8.09256 102.571 8.24122 102.866 8.53959C103.234 8.90496 103.416 9.45039 103.416 10.1748V13.1313Z" fill="white"/>
<path d="M110.568 9.01804H109.398V11.4154C109.398 12.0247 109.605 12.3294 110.017 12.3294C110.208 12.3294 110.366 12.3126 110.491 12.2781L110.518 13.1104C110.308 13.192 110.032 13.2329 109.693 13.2329C109.273 13.2329 108.946 13.101 108.71 12.8371C108.473 12.5733 108.355 12.1294 108.355 11.5065V9.01804H107.657V8.19622H108.355V7.2917L109.397 6.96716V8.19518H110.567V9.01804H110.568Z" fill="white"/>
<path d="M116.193 13.1313H115.129V10.3256C115.129 9.44098 114.809 8.99814 114.167 8.99814C113.674 8.99814 113.338 9.25463 113.153 9.76761C113.122 9.87544 113.104 10.0073 113.104 10.1623V13.1303H112.042V5.93176H113.104V8.90601H113.124C113.458 8.36476 113.938 8.09466 114.56 8.09466C115 8.09466 115.364 8.24332 115.653 8.54169C116.013 8.91334 116.193 9.4661 116.193 10.1968V13.1313Z" fill="white"/>
<path d="M121.996 10.4303C121.996 10.6271 121.982 10.7925 121.956 10.9276H118.77C118.784 11.4154 118.936 11.7871 119.231 12.0446C119.501 12.275 119.848 12.3901 120.274 12.3901C120.746 12.3901 121.176 12.3126 121.563 12.1567L121.729 12.9188C121.276 13.1219 120.743 13.2234 120.125 13.2234C119.385 13.2234 118.802 12.9984 118.38 12.5482C117.956 12.098 117.747 11.494 117.747 10.736C117.747 9.99166 117.942 9.3719 118.337 8.87776C118.748 8.35012 119.305 8.0863 120.008 8.0863C120.695 8.0863 121.217 8.35012 121.57 8.87776C121.855 9.29652 121.996 9.81474 121.996 10.4303ZM120.982 10.1466C120.99 9.82102 120.92 9.54045 120.776 9.30385C120.592 8.9992 120.311 8.84635 119.931 8.84635C119.584 8.84635 119.301 8.99501 119.085 9.29338C118.909 9.53103 118.804 9.81474 118.77 10.1466H120.982Z" fill="white"/>
</svg>
