<svg width="135" height="40" viewBox="0 0 135 40" fill="none" xmlns="http://www.w3.org/2000/svg">
<path d="M135 35.9904C135 38.2056 133.262 40 131.112 40H3.89257C1.744 40 0 38.2056 0 35.9904V4.01487C0 1.80067 1.744 0 3.89257 0H131.111C133.262 0 134.999 1.80067 134.999 4.01487L135 35.9904Z" fill="#212529"/>
<path d="M41.4109 25C40.7762 25 40.4589 24.6827 40.4589 24.048V16.082C40.4589 15.4473 40.7762 15.13 41.4109 15.13H44.1269C45.7789 15.13 47.0529 15.5547 47.9489 16.404C48.8542 17.2533 49.3069 18.4713 49.3069 20.058C49.3069 21.6353 48.8542 22.8533 47.9489 23.712C47.0529 24.5707 45.7789 25 44.1269 25H41.4109ZM42.2509 23.516H44.0149C46.2922 23.516 47.4309 22.3633 47.4309 20.058C47.4309 17.762 46.2922 16.614 44.0149 16.614H42.2509V23.516ZM54.0769 25.14C53.3676 25.14 52.7516 24.9953 52.2289 24.706C51.7063 24.4167 51.3003 24.006 51.0109 23.474C50.7216 22.9327 50.5769 22.298 50.5769 21.57C50.5769 20.842 50.7216 20.212 51.0109 19.68C51.3003 19.148 51.7063 18.7373 52.2289 18.448C52.7516 18.1587 53.3676 18.014 54.0769 18.014C54.7863 18.014 55.4023 18.1587 55.9249 18.448C56.4476 18.7373 56.8536 19.148 57.1429 19.68C57.4323 20.212 57.5769 20.842 57.5769 21.57C57.5769 22.298 57.4323 22.9327 57.1429 23.474C56.8536 24.006 56.4476 24.4167 55.9249 24.706C55.4023 24.9953 54.7863 25.14 54.0769 25.14ZM54.0769 23.81C54.5996 23.81 55.0196 23.6233 55.3369 23.25C55.6543 22.8673 55.8129 22.3073 55.8129 21.57C55.8129 20.8233 55.6543 20.268 55.3369 19.904C55.0196 19.5307 54.5996 19.344 54.0769 19.344C53.5543 19.344 53.1343 19.5307 52.8169 19.904C52.4996 20.268 52.3409 20.8233 52.3409 21.57C52.3409 22.3073 52.4996 22.8673 52.8169 23.25C53.1343 23.6233 53.5543 23.81 54.0769 23.81ZM61.5306 25.112C61.0453 25.112 60.7093 24.8693 60.5226 24.384L58.4926 19.204C58.3713 18.8773 58.3759 18.602 58.5066 18.378C58.6466 18.154 58.8893 18.042 59.2346 18.042C59.4399 18.042 59.6079 18.0933 59.7386 18.196C59.8693 18.2893 59.9813 18.4713 60.0746 18.742L61.6146 22.956L63.1966 18.63C63.3459 18.238 63.6119 18.042 63.9946 18.042C64.3866 18.042 64.6526 18.238 64.7926 18.63L66.3746 22.998L67.9286 18.7C68.0219 18.448 68.1386 18.2753 68.2786 18.182C68.4279 18.0887 68.5913 18.042 68.7686 18.042C69.1046 18.042 69.3239 18.1633 69.4266 18.406C69.5293 18.6393 69.5199 18.9053 69.3986 19.204L67.3826 24.384C67.1866 24.8693 66.8506 25.112 66.3746 25.112C65.8799 25.112 65.5439 24.8693 65.3666 24.384L63.9386 20.59L62.5386 24.37C62.3613 24.8647 62.0253 25.112 61.5306 25.112ZM71.6882 25.112C71.1095 25.112 70.8202 24.8133 70.8202 24.216V18.924C70.8202 18.336 71.1048 18.042 71.6742 18.042C72.2435 18.042 72.5282 18.336 72.5282 18.924V19.218C72.7615 18.826 73.0742 18.5273 73.4662 18.322C73.8675 18.1167 74.3155 18.014 74.8102 18.014C76.4248 18.014 77.2322 18.952 77.2322 20.828V24.216C77.2322 24.8133 76.9428 25.112 76.3642 25.112C75.7762 25.112 75.4822 24.8133 75.4822 24.216V20.912C75.4822 20.38 75.3795 19.9927 75.1742 19.75C74.9782 19.5073 74.6702 19.386 74.2502 19.386C73.7368 19.386 73.3262 19.5493 73.0182 19.876C72.7195 20.1933 72.5702 20.618 72.5702 21.15V24.216C72.5702 24.8133 72.2762 25.112 71.6882 25.112ZM81.3476 25.14C79.7889 25.14 79.0096 24.2673 79.0096 22.522V15.9C79.0096 15.312 79.2989 15.018 79.8776 15.018C80.4656 15.018 80.7596 15.312 80.7596 15.9V22.438C80.7596 23.278 81.1096 23.698 81.8096 23.698C81.8843 23.698 81.9543 23.698 82.0196 23.698C82.0849 23.6887 82.1503 23.6793 82.2156 23.67C82.3463 23.6513 82.4349 23.6887 82.4816 23.782C82.5283 23.866 82.5516 24.0433 82.5516 24.314C82.5516 24.5473 82.5049 24.7293 82.4116 24.86C82.3183 24.9907 82.1643 25.07 81.9496 25.098C81.7536 25.126 81.5529 25.14 81.3476 25.14ZM86.534 25.14C85.8246 25.14 85.2086 24.9953 84.686 24.706C84.1633 24.4167 83.7573 24.006 83.468 23.474C83.1786 22.9327 83.034 22.298 83.034 21.57C83.034 20.842 83.1786 20.212 83.468 19.68C83.7573 19.148 84.1633 18.7373 84.686 18.448C85.2086 18.1587 85.8246 18.014 86.534 18.014C87.2433 18.014 87.8593 18.1587 88.382 18.448C88.9046 18.7373 89.3106 19.148 89.6 19.68C89.8893 20.212 90.034 20.842 90.034 21.57C90.034 22.298 89.8893 22.9327 89.6 23.474C89.3106 24.006 88.9046 24.4167 88.382 24.706C87.8593 24.9953 87.2433 25.14 86.534 25.14ZM86.534 23.81C87.0566 23.81 87.4766 23.6233 87.794 23.25C88.1113 22.8673 88.27 22.3073 88.27 21.57C88.27 20.8233 88.1113 20.268 87.794 19.904C87.4766 19.5307 87.0566 19.344 86.534 19.344C86.0113 19.344 85.5913 19.5307 85.274 19.904C84.9566 20.268 84.798 20.8233 84.798 21.57C84.798 22.3073 84.9566 22.8673 85.274 23.25C85.5913 23.6233 86.0113 23.81 86.534 23.81ZM93.7324 25.14C93.2377 25.14 92.7944 25.0467 92.4024 24.86C92.0197 24.664 91.7164 24.4027 91.4924 24.076C91.2777 23.7493 91.1704 23.3807 91.1704 22.97C91.1704 22.466 91.301 22.0693 91.5624 21.78C91.8237 21.4813 92.2484 21.2667 92.8364 21.136C93.4244 21.0053 94.213 20.94 95.2024 20.94H95.6924V20.646C95.6924 20.1793 95.5897 19.8433 95.3844 19.638C95.179 19.4327 94.8337 19.33 94.3484 19.33C94.0777 19.33 93.7837 19.3627 93.4664 19.428C93.1584 19.4933 92.8317 19.6053 92.4864 19.764C92.2624 19.8667 92.0757 19.8807 91.9264 19.806C91.777 19.722 91.6744 19.596 91.6184 19.428C91.5717 19.2507 91.581 19.0733 91.6464 18.896C91.721 18.7187 91.8657 18.588 92.0804 18.504C92.5097 18.3267 92.9204 18.2007 93.3124 18.126C93.7137 18.0513 94.0777 18.014 94.4044 18.014C95.403 18.014 96.145 18.2473 96.6304 18.714C97.1157 19.1713 97.3584 19.8853 97.3584 20.856V24.216C97.3584 24.8133 97.0877 25.112 96.5464 25.112C95.9957 25.112 95.7204 24.8133 95.7204 24.216V23.908C95.5617 24.2907 95.3097 24.594 94.9644 24.818C94.619 25.0327 94.2084 25.14 93.7324 25.14ZM94.0964 23.936C94.5537 23.936 94.9317 23.7773 95.2304 23.46C95.5384 23.1427 95.6924 22.7413 95.6924 22.256V21.948H95.2164C94.339 21.948 93.7277 22.018 93.3824 22.158C93.0464 22.2887 92.8784 22.5313 92.8784 22.886C92.8784 23.194 92.9857 23.446 93.2004 23.642C93.415 23.838 93.7137 23.936 94.0964 23.936ZM101.767 25.14C101.169 25.14 100.642 24.9953 100.185 24.706C99.7366 24.4167 99.3866 24.006 99.1346 23.474C98.8826 22.9327 98.7566 22.298 98.7566 21.57C98.7566 20.8327 98.8826 20.2027 99.1346 19.68C99.3866 19.148 99.7366 18.7373 100.185 18.448C100.642 18.1587 101.169 18.014 101.767 18.014C102.252 18.014 102.691 18.1213 103.083 18.336C103.475 18.5507 103.769 18.8353 103.965 19.19V15.9C103.965 15.312 104.254 15.018 104.833 15.018C105.421 15.018 105.715 15.312 105.715 15.9V24.216C105.715 24.8133 105.425 25.112 104.847 25.112C104.268 25.112 103.979 24.8133 103.979 24.216V23.922C103.783 24.2953 103.489 24.594 103.097 24.818C102.705 25.0327 102.261 25.14 101.767 25.14ZM102.257 23.81C102.779 23.81 103.199 23.6233 103.517 23.25C103.834 22.8673 103.993 22.3073 103.993 21.57C103.993 20.8233 103.834 20.268 103.517 19.904C103.199 19.5307 102.779 19.344 102.257 19.344C101.734 19.344 101.314 19.5307 100.997 19.904C100.679 20.268 100.521 20.8233 100.521 21.57C100.521 22.3073 100.679 22.8673 100.997 23.25C101.314 23.6233 101.734 23.81 102.257 23.81Z" fill="white"/>
<path d="M29 20.625V24.125C29 25.0915 28.2165 25.875 27.25 25.875H16.75C15.7835 25.875 15 25.0915 15 24.125V20.625M22 21.5L22 11M22 21.5L18.5 18M22 21.5L25.5 18" stroke="white" stroke-width="1.5" stroke-linecap="round" stroke-linejoin="round"/>
</svg>
