<svg width="135" height="40" viewBox="0 0 135 40" fill="none" xmlns="http://www.w3.org/2000/svg">
<path fill-rule="evenodd" clip-rule="evenodd" d="M129.998 40H5.00184C2.24512 40 0 37.7456 0 35V5C0 2.24439 2.24512 0 5.00184 0H129.998C132.752 0 135 2.24439 135 5V35C135 37.7456 132.752 40 129.998 40Z" fill="#212529"/>
<path d="M71.1185 13.2319C70.217 13.2319 69.457 12.9152 68.856 12.2918C68.2599 11.6858 67.9271 10.8504 67.942 9.99752C67.942 9.08729 68.25 8.31672 68.856 7.70574C69.4545 7.0823 70.2145 6.76559 71.116 6.76559C72.0076 6.76559 72.7675 7.0823 73.3785 7.70574C73.9845 8.33667 74.2924 9.10724 74.2924 9.99752C74.2825 10.9102 73.9745 11.6808 73.3785 12.2893C72.78 12.9177 72.02 13.2319 71.1185 13.2319ZM44.2939 13.2319C43.4122 13.2319 42.6473 12.9202 42.0214 12.3042C41.4006 11.6908 41.0851 10.9152 41.0851 10C41.0851 9.0848 41.4006 8.30924 42.0214 7.69577C42.6349 7.07981 43.3998 6.76809 44.2939 6.76809C44.731 6.76809 45.1556 6.85537 45.5629 7.03243C45.9628 7.2045 46.2881 7.43891 46.529 7.72569L46.5886 7.79801L45.9156 8.46136L45.8461 8.37906C45.4661 7.9252 44.957 7.70325 44.2839 7.70325C43.6829 7.70325 43.1589 7.91771 42.7268 8.34165C42.2921 8.76809 42.0711 9.32669 42.0711 10.0025C42.0711 10.6783 42.2921 11.2369 42.7268 11.6634C43.1589 12.0873 43.6829 12.3018 44.2839 12.3018C44.9247 12.3018 45.4636 12.0873 45.8833 11.6634C46.1317 11.414 46.2857 11.0648 46.3403 10.6235H44.1821V9.69078H47.2666L47.2791 9.77557C47.3014 9.93268 47.3238 10.0948 47.3238 10.2444C47.3238 11.1047 47.0655 11.8005 46.5539 12.3142C45.9727 12.9227 45.2128 13.2319 44.2939 13.2319ZM79.9599 13.0998H79.0087L76.0955 8.41896L76.1203 9.26185V13.0973H75.1691V6.90026H76.2544L76.2842 6.94764L79.0236 11.3566L78.9987 10.5162V6.90026H79.9599V13.0998ZM63.9709 13.0998H63.0073V7.83293H61.3359V6.90026H65.6398V7.83293H63.9684V13.0998H63.9709ZM60.5511 13.0998H59.5899V6.90026H60.5511V13.0998ZM55.1494 13.0998H54.1882V7.83293H52.5168V6.90026H56.8208V7.83293H55.1494V13.0998ZM51.9084 13.0898H48.2228V6.90026H51.9084V7.83293H49.1864V9.53367H51.6426V10.4564H49.1864V12.1571H51.9084V13.0898ZM69.5613 11.6509C69.991 12.0823 70.5125 12.2993 71.1185 12.2993C71.7418 12.2993 72.251 12.0873 72.6757 11.6509C73.0979 11.2269 73.3114 10.6708 73.3114 10C73.3114 9.32919 73.0979 8.77058 72.6781 8.34914C72.2485 7.91771 71.7245 7.70076 71.121 7.70076C70.4976 7.70076 69.9885 7.91273 69.5663 8.34914C69.1441 8.77308 68.9305 9.32919 68.9305 10C68.9305 10.6708 69.1416 11.2294 69.5613 11.6509Z" fill="white"/>
<path fill-rule="evenodd" clip-rule="evenodd" d="M67.8526 21.7556C65.5057 21.7556 63.6033 23.5436 63.6033 26.01C63.6033 28.4539 65.5181 30.2643 67.8526 30.2643C70.1996 30.2643 72.102 28.4638 72.102 26.01C72.102 23.5436 70.1996 21.7556 67.8526 21.7556ZM67.8526 28.5785C66.5686 28.5785 65.4635 27.5112 65.4635 26C65.4635 24.4663 66.5711 23.4214 67.8526 23.4214C69.1366 23.4214 70.2418 24.4663 70.2418 26C70.2443 27.5212 69.1366 28.5785 67.8526 28.5785ZM58.5816 21.7556C56.2347 21.7556 54.3323 23.5436 54.3323 26.01C54.3323 28.4539 56.2471 30.2643 58.5816 30.2643C60.9285 30.2643 62.8309 28.4638 62.8309 26.01C62.8309 23.5436 60.9261 21.7556 58.5816 21.7556ZM58.5816 28.5785C57.2976 28.5785 56.1924 27.5112 56.1924 26C56.1924 24.4663 57.3001 23.4214 58.5816 23.4214C59.8656 23.4214 60.9708 24.4663 60.9708 26C60.9708 27.5212 59.8656 28.5785 58.5816 28.5785ZM47.5497 23.0549V24.8554H51.8537C51.7221 25.8653 51.3893 26.611 50.8801 27.1222C50.2493 27.7556 49.2758 28.4439 47.5597 28.4439C44.9147 28.4439 42.8459 26.2992 42.8459 23.6434C42.8459 20.9875 44.9147 18.8429 47.5597 18.8429C48.9877 18.8429 50.0283 19.409 50.8007 20.1322L52.0722 18.8554C50.9994 17.8229 49.5713 17.0324 47.5696 17.0324C43.9411 17.0324 40.8963 20 40.8963 23.6334C40.8963 27.2768 43.9387 30.2344 47.5696 30.2344C49.5291 30.2344 50.9994 29.591 52.1617 28.379C53.3463 27.1895 53.7213 25.5112 53.7213 24.1571C53.7213 23.7357 53.689 23.3566 53.622 23.0349H47.5472C47.5497 23.0324 47.5497 23.0549 47.5497 23.0549ZM92.6731 24.4563C92.318 23.5012 91.2451 21.7456 89.0446 21.7456C86.8641 21.7456 85.0511 23.4688 85.0511 26C85.0511 28.389 86.8442 30.2544 89.2557 30.2544C91.1929 30.2544 92.3204 29.0648 92.7849 28.3666L91.3469 27.399C90.8701 28.1097 90.2069 28.576 89.2657 28.576C88.3145 28.576 87.6489 28.1421 87.2068 27.2868L92.8718 24.9302C92.8718 24.9327 92.6731 24.4563 92.6731 24.4563ZM86.8964 25.8778C86.8517 24.2344 88.168 23.399 89.1092 23.399C89.8518 23.399 90.4702 23.7656 90.6813 24.2992L86.8964 25.8778ZM82.2944 30H84.1546V17.5012H82.2944V30ZM79.2397 22.7007H79.1726C78.7529 22.1995 77.9557 21.7456 76.9374 21.7456C74.8239 21.7456 72.8768 23.6135 72.8768 26.0125C72.8768 28.4015 74.814 30.2469 76.9374 30.2469C77.9432 30.2469 78.7529 29.7905 79.1726 29.2793H79.2397V29.8903C79.2397 31.5137 78.3754 32.389 76.9821 32.389C75.8422 32.389 75.1344 31.5661 74.8463 30.8778L73.2295 31.5561C73.6939 32.6783 74.9332 34.0673 76.9796 34.0673C79.1602 34.0673 81.0079 32.778 81.0079 29.6334V22H79.2496V22.7007C79.2521 22.7007 79.2397 22.7007 79.2397 22.7007ZM77.1038 28.5785C75.8198 28.5785 74.7469 27.5012 74.7469 26.0125C74.7469 24.5112 75.8198 23.4239 77.1038 23.4239C78.3754 23.4239 79.3613 24.5237 79.3613 26.0125C79.3738 27.5012 78.3779 28.5785 77.1038 28.5785ZM101.383 17.5012H96.9348V30H98.795V25.2668H101.385C103.444 25.2668 105.468 23.7681 105.468 21.389C105.468 19.01 103.452 17.5012 101.383 17.5012ZM101.437 23.5212H98.7925V19.2319H101.437C102.831 19.2319 103.618 20.3865 103.618 21.3765C103.618 22.3566 102.821 23.5212 101.437 23.5212ZM112.924 21.7332C111.573 21.7332 110.18 22.3342 109.603 23.6434L111.252 24.3317C111.608 23.6434 112.258 23.409 112.946 23.409C113.91 23.409 114.883 23.9875 114.906 25.0199V25.1521C114.573 24.9626 113.843 24.6733 112.969 24.6733C111.188 24.6733 109.382 25.6509 109.382 27.4838C109.382 29.1621 110.843 30.2394 112.469 30.2394C113.719 30.2394 114.407 29.6733 114.836 29.0174H114.903V29.985H116.696V25.197C116.696 22.9676 115.047 21.7332 112.924 21.7332ZM112.69 28.5785C112.082 28.5785 111.23 28.2793 111.23 27.5112C111.23 26.5436 112.293 26.177 113.2 26.177C114.019 26.177 114.407 26.3541 114.893 26.5985C114.759 27.7207 113.815 28.5686 112.69 28.5785ZM123.238 22L121.102 27.4214H121.035L118.822 22H116.821L120.141 29.5785L118.249 33.7905H120.186L125.294 22H123.238ZM106.494 30H108.354V17.5012H106.494V30Z" fill="white"/>
<path fill-rule="evenodd" clip-rule="evenodd" d="M10.3911 7.53367C10.103 7.84539 9.93661 8.3217 9.93661 8.94514V31.0574C9.93661 31.6808 10.103 32.1571 10.401 32.4564L10.478 32.5237L22.8162 20.1347V19.8579L10.4681 7.46634L10.3911 7.53367Z" fill="url(#paint0_linear_12_208)"/>
<path fill-rule="evenodd" clip-rule="evenodd" d="M26.9215 24.2768L22.8063 20.1447V19.8554L26.9215 15.7232L27.0109 15.7781L31.8786 18.5561C33.2719 19.3442 33.2719 20.6459 31.8786 21.4439L27.0109 24.222L26.9215 24.2768Z" fill="url(#paint1_linear_12_208)"/>
<path fill-rule="evenodd" clip-rule="evenodd" d="M27.0109 24.2219L22.8063 20L10.3911 32.4663C10.8456 32.9551 11.608 33.01 12.4599 32.5337L27.0109 24.2219Z" fill="url(#paint2_linear_12_208)"/>
<path fill-rule="evenodd" clip-rule="evenodd" d="M27.0109 15.7781L12.4599 7.47882C11.608 6.99004 10.8431 7.05737 10.3911 7.54615L22.8063 20L27.0109 15.7781Z" fill="url(#paint3_linear_12_208)"/>
<path opacity="0.2" fill-rule="evenodd" clip-rule="evenodd" d="M26.9215 24.1321L12.4698 32.3766C11.6627 32.8429 10.9424 32.8105 10.478 32.3865L10.401 32.4638L10.478 32.5312C10.9424 32.9526 11.6627 32.9875 12.4698 32.5212L27.0208 24.2219L26.9215 24.1321Z" fill="black"/>
<path opacity="0.12" fill-rule="evenodd" clip-rule="evenodd" d="M31.8786 21.2993L26.9091 24.1322L26.9985 24.2219L31.8662 21.4439C32.5641 21.0449 32.9068 20.5212 32.9068 20C32.8646 20.4788 32.5095 20.9327 31.8786 21.2993Z" fill="black"/>
<path opacity="0.25" fill-rule="evenodd" clip-rule="evenodd" d="M12.4599 7.62345L31.8787 18.7008C32.5095 19.0574 32.8646 19.5237 32.9193 20C32.9193 19.4788 32.5765 18.9551 31.8787 18.5561L12.4599 7.47881C11.0666 6.67831 9.93661 7.34664 9.93661 8.94514V9.08978C9.93661 7.48878 11.0666 6.83292 12.4599 7.62345Z" fill="white"/>
<defs>
<linearGradient id="paint0_linear_12_208" x1="21.7095" y1="8.70657" x2="1.9351" y2="13.9539" gradientUnits="userSpaceOnUse">
<stop stop-color="#00A0FF"/>
<stop offset="0.00657" stop-color="#00A1FF"/>
<stop offset="0.2601" stop-color="#00BEFF"/>
<stop offset="0.5122" stop-color="#00D2FF"/>
<stop offset="0.7604" stop-color="#00DFFF"/>
<stop offset="1" stop-color="#00E3FF"/>
</linearGradient>
<linearGradient id="paint1_linear_12_208" x1="33.6956" y1="20.0001" x2="9.59801" y2="20.0001" gradientUnits="userSpaceOnUse">
<stop stop-color="#FFE000"/>
<stop offset="0.4087" stop-color="#FFBD00"/>
<stop offset="0.7754" stop-color="#FFA500"/>
<stop offset="1" stop-color="#FF9C00"/>
</linearGradient>
<linearGradient id="paint2_linear_12_208" x1="24.7246" y1="22.2973" x2="8.76185" y2="49.0538" gradientUnits="userSpaceOnUse">
<stop stop-color="#FF3A44"/>
<stop offset="1" stop-color="#C31162"/>
</linearGradient>
<linearGradient id="paint3_linear_12_208" x1="7.26483" y1="0.178805" x2="14.3865" y2="12.1287" gradientUnits="userSpaceOnUse">
<stop stop-color="#32A071"/>
<stop offset="0.0685" stop-color="#2DA771"/>
<stop offset="0.4762" stop-color="#15CF74"/>
<stop offset="0.8009" stop-color="#06E775"/>
<stop offset="1" stop-color="#00F076"/>
</linearGradient>
</defs>
</svg>
