<svg width="135" height="40" viewBox="0 0 135 40" fill="none" xmlns="http://www.w3.org/2000/svg">
<path d="M135 35.9904C135 38.2056 133.262 40 131.112 40H3.89257C1.744 40 0 38.2056 0 35.9904V4.01487C0 1.80067 1.744 0 3.89257 0H131.111C133.262 0 134.999 1.80067 134.999 4.01487L135 35.9904Z" fill="#212529"/>
<path d="M43.7023 25.112C43.2263 25.112 42.8997 24.86 42.7223 24.356L39.7963 16.082C39.6937 15.7833 39.7123 15.5313 39.8523 15.326C40.0017 15.1207 40.249 15.018 40.5943 15.018C40.8463 15.018 41.0423 15.0787 41.1823 15.2C41.3223 15.312 41.4343 15.494 41.5183 15.746L43.7583 22.41L46.1103 15.76C46.2877 15.2653 46.5863 15.018 47.0063 15.018C47.2303 15.018 47.4077 15.0787 47.5383 15.2C47.669 15.3213 47.781 15.5127 47.8743 15.774L50.1843 22.508L52.4943 15.746C52.5783 15.5033 52.6903 15.3213 52.8303 15.2C52.9703 15.0787 53.1617 15.018 53.4043 15.018C53.703 15.018 53.9223 15.1207 54.0623 15.326C54.2023 15.5313 54.221 15.7833 54.1183 16.082L51.1643 24.37C51.071 24.622 50.9497 24.8087 50.8003 24.93C50.651 25.0513 50.4503 25.112 50.1983 25.112C49.9463 25.112 49.7457 25.0513 49.5963 24.93C49.447 24.8087 49.3257 24.6173 49.2323 24.356L46.9503 17.874L44.6543 24.37C44.561 24.622 44.4397 24.8087 44.2903 24.93C44.1503 25.0513 43.9543 25.112 43.7023 25.112ZM58.1336 25.14C57.3589 25.14 56.6916 24.9953 56.1316 24.706C55.5716 24.4167 55.1376 24.006 54.8296 23.474C54.5309 22.942 54.3816 22.312 54.3816 21.584C54.3816 20.8747 54.5263 20.254 54.8156 19.722C55.1143 19.19 55.5203 18.7747 56.0336 18.476C56.5563 18.168 57.1489 18.014 57.8116 18.014C58.7823 18.014 59.5476 18.322 60.1076 18.938C60.6769 19.554 60.9616 20.394 60.9616 21.458C60.9616 21.8033 60.7376 21.976 60.2896 21.976H56.0616C56.1923 23.1987 56.8923 23.81 58.1616 23.81C58.4043 23.81 58.6749 23.782 58.9736 23.726C59.2816 23.6607 59.5709 23.5533 59.8416 23.404C60.0843 23.264 60.2896 23.222 60.4576 23.278C60.6256 23.3247 60.7423 23.4227 60.8076 23.572C60.8823 23.7213 60.8916 23.8893 60.8356 24.076C60.7889 24.2533 60.6583 24.4073 60.4436 24.538C60.1169 24.7433 59.7389 24.8973 59.3096 25C58.8896 25.0933 58.4976 25.14 58.1336 25.14ZM57.8816 19.204C57.3683 19.204 56.9529 19.3627 56.6356 19.68C56.3183 19.9973 56.1269 20.4267 56.0616 20.968H59.5056C59.4683 20.3987 59.3096 19.9647 59.0296 19.666C58.7589 19.358 58.3763 19.204 57.8816 19.204ZM66.2955 25.14C65.7915 25.14 65.3435 25.0327 64.9515 24.818C64.5595 24.594 64.2655 24.2953 64.0695 23.922V24.216C64.0695 24.8133 63.7848 25.112 63.2155 25.112C62.6368 25.112 62.3475 24.8133 62.3475 24.216V15.9C62.3475 15.312 62.6368 15.018 63.2155 15.018C63.8035 15.018 64.0975 15.312 64.0975 15.9V19.162C64.3028 18.8167 64.5968 18.5413 64.9795 18.336C65.3715 18.1213 65.8102 18.014 66.2955 18.014C66.9022 18.014 67.4295 18.1587 67.8775 18.448C68.3255 18.7373 68.6755 19.148 68.9275 19.68C69.1795 20.2027 69.3055 20.8327 69.3055 21.57C69.3055 22.298 69.1795 22.9327 68.9275 23.474C68.6755 24.006 68.3208 24.4167 67.8635 24.706C67.4155 24.9953 66.8928 25.14 66.2955 25.14ZM65.8055 23.81C66.3282 23.81 66.7482 23.6233 67.0655 23.25C67.3828 22.8673 67.5415 22.3073 67.5415 21.57C67.5415 20.8233 67.3828 20.268 67.0655 19.904C66.7482 19.5307 66.3282 19.344 65.8055 19.344C65.2828 19.344 64.8628 19.5307 64.5455 19.904C64.2282 20.268 64.0695 20.8233 64.0695 21.57C64.0695 22.3073 64.2282 22.8673 64.5455 23.25C64.8628 23.6233 65.2828 23.81 65.8055 23.81ZM78.1828 25.112C77.7068 25.112 77.3801 24.86 77.2028 24.356L74.2768 16.082C74.1741 15.7833 74.1928 15.5313 74.3328 15.326C74.4821 15.1207 74.7295 15.018 75.0748 15.018C75.3268 15.018 75.5228 15.0787 75.6628 15.2C75.8028 15.312 75.9148 15.494 75.9988 15.746L78.2388 22.41L80.5908 15.76C80.7681 15.2653 81.0668 15.018 81.4868 15.018C81.7108 15.018 81.8881 15.0787 82.0188 15.2C82.1495 15.3213 82.2615 15.5127 82.3548 15.774L84.6648 22.508L86.9748 15.746C87.0588 15.5033 87.1708 15.3213 87.3108 15.2C87.4508 15.0787 87.6421 15.018 87.8848 15.018C88.1835 15.018 88.4028 15.1207 88.5428 15.326C88.6828 15.5313 88.7015 15.7833 88.5988 16.082L85.6448 24.37C85.5515 24.622 85.4301 24.8087 85.2808 24.93C85.1315 25.0513 84.9308 25.112 84.6788 25.112C84.4268 25.112 84.2261 25.0513 84.0768 24.93C83.9275 24.8087 83.8061 24.6173 83.7128 24.356L81.4308 17.874L79.1348 24.37C79.0415 24.622 78.9201 24.8087 78.7708 24.93C78.6308 25.0513 78.4348 25.112 78.1828 25.112ZM91.5488 25.14C91.0541 25.14 90.6108 25.0467 90.2188 24.86C89.8361 24.664 89.5328 24.4027 89.3088 24.076C89.0941 23.7493 88.9868 23.3807 88.9868 22.97C88.9868 22.466 89.1174 22.0693 89.3788 21.78C89.6401 21.4813 90.0648 21.2667 90.6528 21.136C91.2408 21.0053 92.0294 20.94 93.0188 20.94H93.5088V20.646C93.5088 20.1793 93.4061 19.8433 93.2008 19.638C92.9954 19.4327 92.6501 19.33 92.1648 19.33C91.8941 19.33 91.6001 19.3627 91.2828 19.428C90.9748 19.4933 90.6481 19.6053 90.3028 19.764C90.0788 19.8667 89.8921 19.8807 89.7428 19.806C89.5934 19.722 89.4908 19.596 89.4348 19.428C89.3881 19.2507 89.3974 19.0733 89.4628 18.896C89.5374 18.7187 89.6821 18.588 89.8968 18.504C90.3261 18.3267 90.7368 18.2007 91.1288 18.126C91.5301 18.0513 91.8941 18.014 92.2208 18.014C93.2194 18.014 93.9614 18.2473 94.4468 18.714C94.9321 19.1713 95.1748 19.8853 95.1748 20.856V24.216C95.1748 24.8133 94.9041 25.112 94.3628 25.112C93.8121 25.112 93.5368 24.8133 93.5368 24.216V23.908C93.3781 24.2907 93.1261 24.594 92.7808 24.818C92.4354 25.0327 92.0248 25.14 91.5488 25.14ZM91.9128 23.936C92.3701 23.936 92.7481 23.7773 93.0468 23.46C93.3548 23.1427 93.5088 22.7413 93.5088 22.256V21.948H93.0328C92.1554 21.948 91.5441 22.018 91.1988 22.158C90.8628 22.2887 90.6948 22.5313 90.6948 22.886C90.6948 23.194 90.8021 23.446 91.0168 23.642C91.2314 23.838 91.5301 23.936 91.9128 23.936ZM99.289 25.14C97.7303 25.14 96.951 24.2673 96.951 22.522V15.9C96.951 15.312 97.2403 15.018 97.819 15.018C98.407 15.018 98.701 15.312 98.701 15.9V22.438C98.701 23.278 99.051 23.698 99.751 23.698C99.8257 23.698 99.8957 23.698 99.961 23.698C100.026 23.6887 100.092 23.6793 100.157 23.67C100.288 23.6513 100.376 23.6887 100.423 23.782C100.47 23.866 100.493 24.0433 100.493 24.314C100.493 24.5473 100.446 24.7293 100.353 24.86C100.26 24.9907 100.106 25.07 99.891 25.098C99.695 25.126 99.4943 25.14 99.289 25.14ZM103.76 25.14C102.201 25.14 101.422 24.2673 101.422 22.522V15.9C101.422 15.312 101.711 15.018 102.29 15.018C102.878 15.018 103.172 15.312 103.172 15.9V22.438C103.172 23.278 103.522 23.698 104.222 23.698C104.296 23.698 104.366 23.698 104.432 23.698C104.497 23.6887 104.562 23.6793 104.628 23.67C104.758 23.6513 104.847 23.6887 104.894 23.782C104.94 23.866 104.964 24.0433 104.964 24.314C104.964 24.5473 104.917 24.7293 104.824 24.86C104.73 24.9907 104.576 25.07 104.362 25.098C104.166 25.126 103.965 25.14 103.76 25.14ZM109.198 25.14C108.423 25.14 107.756 24.9953 107.196 24.706C106.636 24.4167 106.202 24.006 105.894 23.474C105.595 22.942 105.446 22.312 105.446 21.584C105.446 20.8747 105.591 20.254 105.88 19.722C106.179 19.19 106.585 18.7747 107.098 18.476C107.621 18.168 108.213 18.014 108.876 18.014C109.847 18.014 110.612 18.322 111.172 18.938C111.741 19.554 112.026 20.394 112.026 21.458C112.026 21.8033 111.802 21.976 111.354 21.976H107.126C107.257 23.1987 107.957 23.81 109.226 23.81C109.469 23.81 109.739 23.782 110.038 23.726C110.346 23.6607 110.635 23.5533 110.906 23.404C111.149 23.264 111.354 23.222 111.522 23.278C111.69 23.3247 111.807 23.4227 111.872 23.572C111.947 23.7213 111.956 23.8893 111.9 24.076C111.853 24.2533 111.723 24.4073 111.508 24.538C111.181 24.7433 110.803 24.8973 110.374 25C109.954 25.0933 109.562 25.14 109.198 25.14ZM108.946 19.204C108.433 19.204 108.017 19.3627 107.7 19.68C107.383 19.9973 107.191 20.4267 107.126 20.968H110.57C110.533 20.3987 110.374 19.9647 110.094 19.666C109.823 19.358 109.441 19.204 108.946 19.204ZM116.521 25.14C114.71 25.14 113.805 24.244 113.805 22.452V19.47H113.077C112.61 19.47 112.377 19.2507 112.377 18.812C112.377 18.3733 112.61 18.154 113.077 18.154H113.805V16.88C113.805 16.292 114.099 15.998 114.687 15.998C115.265 15.998 115.555 16.292 115.555 16.88V18.154H117.039C117.505 18.154 117.739 18.3733 117.739 18.812C117.739 19.2507 117.505 19.47 117.039 19.47H115.555V22.354C115.555 22.802 115.653 23.138 115.849 23.362C116.045 23.586 116.362 23.698 116.801 23.698C116.959 23.698 117.099 23.684 117.221 23.656C117.342 23.628 117.449 23.6093 117.543 23.6C117.655 23.5907 117.748 23.628 117.823 23.712C117.897 23.7867 117.935 23.9453 117.935 24.188C117.935 24.3747 117.902 24.5427 117.837 24.692C117.781 24.832 117.673 24.93 117.515 24.986C117.393 25.0233 117.235 25.056 117.039 25.084C116.843 25.1213 116.67 25.14 116.521 25.14Z" fill="white"/>
<path d="M24.0588 14L27.3529 14C28.2626 14 29 14.7374 29 15.6471V25.5294C29 26.4391 28.2626 27.1765 27.3529 27.1765H24.0588M24.8824 20.5882L15 20.5882M24.8824 20.5882L21.5882 23.8824M24.8824 20.5882L21.5882 17.2941" stroke="white" stroke-width="1.5" stroke-linecap="round" stroke-linejoin="round"/>
</svg>
